<svg width="148" height="18" viewBox="0 0 148 18" fill="none" xmlns="http://www.w3.org/2000/svg">
<path d="M26.986 3.85266H7.71021V12.8463H26.986V3.85266Z" fill="white"/>
<path d="M1.28209 12.8526V1.28209H26.9874V3.85261H28.2695V0H0V14.1347H7.71159V12.8526H1.28209Z" fill="white"/>
<path d="M28.2681 14.1347H7.71021V17.9937H35.9797V3.85266H28.2681V14.1347Z" fill="white"/>
<path d="M56.5442 8.44781C60.5111 8.15585 62.7388 6.93724 62.7388 5.36953C62.7388 4.6079 62.2438 3.9859 61.2917 3.50987H64.186V1.44076H56.5442V0H52.8249V1.44711H45.1831V3.51622H48.0773C47.1253 3.99224 46.6302 4.6079 46.6302 5.37588C46.6302 6.94358 48.8643 8.1622 52.8249 8.45416V9.29831H44.9736V11.469H48.1154C46.7508 12.0656 46.0082 12.9351 46.0082 14.0331C46.0082 16.3688 49.3531 18 54.6845 18C60.016 18 63.3609 16.3688 63.3609 14.0331C63.3609 12.9415 62.6183 12.0719 61.2537 11.469H64.3954V9.29831H56.5442V8.45416V8.44781ZM51.1112 6.07405C50.5717 5.82652 50.3495 5.47743 50.3495 5.08392C50.3495 4.69041 50.578 4.34133 51.1112 4.09379C51.8982 3.71932 53.2628 3.51622 54.6845 3.51622C56.1062 3.51622 57.4708 3.71932 58.2579 4.09379C58.7974 4.34133 59.0195 4.69041 59.0195 5.08392C59.0195 5.47743 58.791 5.82652 58.2579 6.07405C57.4708 6.46756 56.1316 6.65162 54.6845 6.65162C53.2374 6.65162 51.8982 6.46756 51.1112 6.07405ZM58.2769 12.1227C59.1845 12.5162 59.6415 13.0748 59.6415 13.7348C59.6415 14.3949 59.2099 14.9535 58.2769 15.347C57.4074 15.7214 56.0872 15.9245 54.6845 15.9245C53.2818 15.9245 51.9553 15.7214 51.0921 15.347C50.1655 14.9535 49.7275 14.3949 49.7275 13.7348C49.7275 13.0748 50.1845 12.5162 51.0921 12.1227C51.9617 11.7482 53.2818 11.5451 54.6845 11.5451C56.0872 11.5451 57.4074 11.7482 58.2769 12.1227Z" fill="white"/>
<path d="M145.365 15.3087V0.82489H128.221V3.0971H141.81V15.3087H139.418V6.09287H136.111V15.3087H134.048V6.09287H130.741V15.3087H127.599V17.5809H147.021V15.3087H145.365Z" fill="white"/>
<path d="M107.982 14.0649H121.286V17.5811H124.916V11.7927H107.982V14.0649Z" fill="white"/>
<path d="M72.1407 10.1613C75.549 10.1613 78.2338 8.20009 78.2338 5.30587C78.2338 2.41165 75.549 0.450439 72.1407 0.450439C68.7324 0.450439 66.0476 2.41165 66.0476 5.30587C66.0476 8.20009 68.7133 10.1613 72.1407 10.1613ZM72.1407 2.48147C73.5053 2.48147 74.597 3.59853 74.597 5.29318C74.597 6.98782 73.5624 8.14296 72.1407 8.14296C70.719 8.14296 69.6844 6.98782 69.6844 5.29318C69.6844 3.59853 70.7571 2.48147 72.1407 2.48147Z" fill="white"/>
<path d="M113.308 10.7391C116.697 10.7391 118.988 8.81594 118.988 6.29619C118.988 5.22355 118.557 4.25247 117.814 3.50987H119.877V1.44076H115.123V0H111.486V1.44711H106.732V3.51622H108.795C108.052 4.25882 107.621 5.2299 107.621 6.30254C107.621 8.82229 109.912 10.7454 113.301 10.7454L113.308 10.7391ZM113.308 3.45275C114.545 3.45275 115.542 4.48731 115.542 6.07405C115.542 7.66079 114.615 8.72073 113.308 8.72073C112 8.72073 111.08 7.6481 111.08 6.07405C111.08 4.5 112.051 3.45275 113.308 3.45275Z" fill="white"/>
<path d="M124.915 0.824829H121.285V10.9673H124.915V8.36503H127.187V6.09281H124.915V0.824829Z" fill="white"/>
<path d="M67.2847 13.6522H80.5499V17.581H84.2248V11.38H67.2847V13.6522Z" fill="white"/>
<path d="M101.679 6.60692H100.086V0.824829H96.678V14.3756H90.5658V2.97645H95.2118V0.824829H87.1194V16.5463H96.678V17.5808H100.086V8.87913H101.679V17.5808H105.088V0.824829H101.679V6.60692Z" fill="white"/>
<path d="M84.2242 0.825012H80.5493V10.5549H84.2242V0.825012Z" fill="white"/>
</svg>
