<svg width="137" height="28" viewBox="0 0 137 28" fill="none" xmlns="http://www.w3.org/2000/svg">
<g clip-path="url(#clip0_684_9251)">
<path d="M95.8719 18.443H110.508V21.7343H114.633V16.0287H95.8719V18.443ZM61.1718 14.2008C64.4019 14.2008 67.0231 12.0981 67.0231 9.50415C67.0231 6.91019 64.4019 4.80755 61.1718 4.80755C57.9416 4.80755 55.3205 6.91019 55.3205 9.50415C55.3205 12.0981 57.9416 14.2008 61.1718 14.2008ZM61.1718 7.15849C62.5485 7.15849 63.6659 8.20981 63.6659 9.50415C63.6659 10.7985 62.5485 11.8551 61.1718 11.8551C59.795 11.8551 58.6777 10.8038 58.6777 9.50415C58.6777 8.20453 59.795 7.15849 61.1718 7.15849ZM96.4438 11.9185C96.4438 14.0053 98.959 15.7011 102.057 15.7011C105.155 15.7011 107.67 14.0106 107.67 11.9185C107.67 11.2053 107.373 10.5343 106.865 9.96377H109.327V7.80302H94.7493L94.744 9.96377H97.2539C96.7403 10.5343 96.4491 11.2 96.4491 11.9185H96.4438ZM100.971 9.96377H103.148C103.804 10.3547 104.249 11.0838 104.249 11.9185C104.249 13.1653 103.269 14.1743 102.062 14.1743C100.855 14.1743 99.8751 13.1653 99.8751 11.9185C99.8751 11.0838 100.32 10.3547 100.977 9.96377H100.971ZM107.469 7.23773V5.18264H96.6979V7.23773H107.469ZM135.041 19.5789V5.17736H116.836L116.862 7.50189L131.329 7.49132L131.313 19.6211H128.803V10.4604H125.181V19.6106H123.646V10.5079H119.886V19.5683H116.174V21.7819H136.995V19.5683H135.036L135.041 19.5789ZM90.2536 11.0415H89.0674V5.28302H85.4613V19.6317H78.6092V7.07924H83.9151V5.23019H75.4638V21.7872H89.0197V13.4083H90.2059V21.7872H93.8649V5.2249H90.2588V11.0362L90.2536 11.0415ZM110.513 5.2249V15.5479L114.575 15.5638V12.8377H116.788V10.4234H114.575V5.23019H110.513V5.2249ZM44.9205 4.17358H41.2773V5.62641H32.3389L32.3706 7.79245H34.96C34.3193 8.28377 33.938 8.83321 33.938 9.40377C33.938 11.0891 37.1629 12.6158 40.7902 13.0755V13.4823H31.9629V15.5955H35.5637C34.2293 16.3509 33.4297 17.3125 33.4297 18.3638C33.4297 20.7992 37.7401 22.7751 43.0565 22.7751C48.373 22.7751 52.6834 20.7992 52.6834 18.3638C52.6834 17.3177 51.8838 16.3509 50.5494 15.5955H53.8484V13.4823H45.0211V13.086C48.659 12.6423 51.8679 11.0996 51.8679 9.40377C51.8679 8.83321 51.5078 8.28377 50.8936 7.79245H53.896V5.62641H44.9099V4.17358H44.9205ZM49.0561 18.1577C49.0561 19.4943 46.3714 20.5774 43.0671 20.5774C39.7629 20.5774 37.0729 19.4943 37.0729 18.1577C37.0729 16.8211 39.7576 15.7381 43.0671 15.7381C46.3767 15.7381 49.0561 16.8211 49.0561 18.1577ZM47.5046 9.47774C47.5046 10.5819 45.7677 11.0785 43.0354 11.0785C40.303 11.0785 38.2431 10.5026 38.2431 9.39849C38.2431 8.29434 40.2183 7.79773 42.9559 7.79773C45.6936 7.79773 47.5099 8.37358 47.5099 9.47774H47.5046ZM69.6442 14.0845H73.1233V5.27245H69.6442V14.0792V14.0845ZM55.8235 17.0536H69.5436V21.8347H73.1762V14.8928H55.8235V17.0589V17.0536Z" fill="white"/>
<path d="M8.31915 17.4128C8.31915 17.4128 8.31915 17.4287 8.31915 17.4392C8.31915 17.4604 8.31915 17.4762 8.31915 17.4921C8.31915 17.5079 8.31385 17.5185 8.30856 17.5343C8.29267 17.5607 8.27149 17.5766 8.24501 17.5924C8.21854 17.6083 8.18676 17.6136 8.15499 17.6189C8.10733 17.6241 8.07027 17.6189 8.0385 17.6136C8.00143 17.5977 7.96966 17.5713 7.95377 17.5343C7.94848 17.5185 7.94318 17.5026 7.93788 17.4921C7.93788 17.4815 7.93788 17.4657 7.92729 17.4445L8.0279 17.434L8.1444 17.4181L8.30856 17.397C8.30856 17.397 8.30856 17.4128 8.30856 17.4181L8.31915 17.4128ZM8.2556 17.1804C8.2556 17.1804 8.23972 17.1804 8.22383 17.1857C8.21854 17.1857 8.16558 17.1962 8.06497 17.2121C7.96966 17.2279 7.89552 17.2385 7.85316 17.2438L7.64135 17.2702C7.64135 17.2702 7.61487 17.2702 7.5778 17.2755C7.54074 17.2755 7.51426 17.2808 7.49308 17.286H7.41895C7.41895 17.286 7.41895 17.3124 7.42954 17.3389C7.43483 17.3653 7.44013 17.3864 7.44013 17.4023C7.44013 17.4075 7.44013 17.4287 7.44013 17.4551C7.44013 17.4815 7.44013 17.5026 7.44013 17.5185C7.4666 17.5185 7.49837 17.5079 7.54603 17.4974C7.59369 17.4868 7.63076 17.4815 7.65194 17.4762C7.68371 17.4709 7.71548 17.4657 7.74725 17.4604C7.77903 17.4551 7.8108 17.4498 7.84257 17.4445C7.84257 17.4498 7.84257 17.4604 7.84257 17.4709C7.84257 17.4815 7.84257 17.4921 7.84257 17.5079C7.84257 17.5079 7.84257 17.5238 7.84786 17.5502C7.84786 17.5766 7.85846 17.5924 7.86375 17.6083C7.87964 17.6558 7.89023 17.6875 7.90611 17.7087C7.922 17.7351 7.94848 17.7615 7.98025 17.7879C8.01202 17.8143 8.04379 17.8249 8.08086 17.8302C8.11263 17.8302 8.15499 17.8302 8.19735 17.8302C8.2556 17.8196 8.30326 17.7985 8.34033 17.7562C8.37739 17.714 8.39858 17.6664 8.39858 17.6083C8.39858 17.5819 8.39858 17.5555 8.39858 17.5343C8.39858 17.5079 8.39328 17.4868 8.38799 17.4604C8.38799 17.4604 8.38798 17.434 8.37739 17.3864C8.3668 17.3389 8.36151 17.3072 8.36151 17.286L8.34562 17.1592C8.30856 17.1645 8.27678 17.1751 8.23972 17.1804H8.2556Z" fill="white"/>
<path d="M8.47247 18.1789C8.48306 18.2264 8.48306 18.2634 8.47247 18.2845C8.46188 18.3162 8.44069 18.3427 8.39833 18.3638C8.37715 18.3743 8.35597 18.3796 8.32949 18.3849C8.19711 18.4113 8.12298 18.3638 8.0965 18.2476C8.0965 18.2317 8.0965 18.2211 8.0912 18.2159L8.19182 18.1947L8.29772 18.1736L8.46188 18.1419C8.46188 18.1419 8.46188 18.163 8.47247 18.1789ZM7.69406 18.6913C7.69406 18.6913 7.69406 18.7177 7.69935 18.7442C7.69935 18.7759 7.70465 18.797 7.70994 18.8128L7.77878 18.7494C7.77878 18.7494 7.84762 18.686 7.90057 18.6279C7.9853 18.5434 8.05414 18.48 8.11239 18.4325C8.13886 18.4959 8.17593 18.5381 8.22888 18.5698C8.28184 18.6015 8.33479 18.6068 8.40363 18.5962C8.45129 18.5857 8.48835 18.5698 8.51483 18.5434C8.54131 18.517 8.56249 18.48 8.57837 18.4377C8.58896 18.4113 8.58896 18.3796 8.58896 18.3532C8.58896 18.3215 8.57837 18.2793 8.56249 18.2159C8.5519 18.1842 8.5466 18.1525 8.5413 18.1155C8.53601 18.0838 8.52542 18.0521 8.52012 18.0204L8.50424 17.9253C8.50424 17.9253 8.41422 17.9464 8.31361 17.9728C8.27654 17.9834 8.23947 17.994 8.20241 17.9993L7.95882 18.0521C7.95882 18.0521 7.91116 18.0627 7.84762 18.0732C7.78408 18.0838 7.73112 18.0943 7.68876 18.1049L7.59874 18.1208H7.57227C7.57227 18.1208 7.57756 18.1472 7.58815 18.1736C7.59345 18.2 7.60404 18.2211 7.60404 18.237C7.60404 18.2423 7.60404 18.2581 7.60933 18.2845C7.60933 18.311 7.61463 18.3321 7.61992 18.3479C7.63051 18.3479 7.6517 18.3374 7.68347 18.3268C7.71524 18.3162 7.74171 18.311 7.7576 18.3057L7.79467 18.2951L8.03825 18.2423C8.03825 18.2423 8.04355 18.2423 8.04884 18.2423C8.04884 18.2423 8.04884 18.2476 8.04355 18.2528L7.98 18.3057L7.91646 18.3638L7.67288 18.5804C7.68876 18.6227 7.69935 18.6649 7.70465 18.7019L7.69406 18.6913Z" fill="white"/>
<path d="M8.01745 19.2144C8.06511 19.151 8.13924 19.0981 8.23455 19.0611C8.28751 19.04 8.33517 19.0294 8.38812 19.0189C8.44107 19.0083 8.48873 19.0083 8.53639 19.0083C8.58404 19.0083 8.6317 19.0294 8.67406 19.0559C8.70054 19.0717 8.72172 19.0928 8.73231 19.1087C8.7429 19.1298 8.75879 19.151 8.76938 19.1827C8.80115 19.2725 8.79056 19.357 8.72702 19.4362C8.67936 19.4996 8.60523 19.5525 8.50991 19.5894C8.46225 19.6106 8.4093 19.6211 8.36164 19.6317C8.31398 19.637 8.26633 19.6423 8.22396 19.6317C8.16572 19.6211 8.11806 19.6053 8.0757 19.5736C8.03333 19.5419 8.00686 19.5049 7.98568 19.4521C7.9539 19.3623 7.96449 19.2778 8.01745 19.2038V19.2144ZM8.66877 19.7744C8.70054 19.7585 8.73231 19.7321 8.75879 19.7057C8.79056 19.6793 8.81174 19.6476 8.83292 19.6159C8.84881 19.5842 8.8647 19.5472 8.87529 19.5049C8.89117 19.4521 8.89647 19.3993 8.89117 19.3411C8.89117 19.283 8.87529 19.2302 8.84881 19.1721C8.82233 19.1034 8.79056 19.04 8.7482 18.9872C8.70584 18.9344 8.65818 18.8921 8.59463 18.8551C8.53109 18.8234 8.46755 18.8023 8.39871 18.797C8.32987 18.797 8.26103 18.8023 8.19219 18.8287C8.12335 18.8551 8.06511 18.8868 8.01745 18.9291C7.96979 18.9713 7.93272 19.0189 7.90625 19.0823C7.87977 19.1404 7.86388 19.2091 7.86918 19.2778C7.86918 19.3464 7.88506 19.4151 7.91154 19.4838C7.93802 19.5525 7.96979 19.6159 8.01215 19.6687C8.05451 19.7215 8.10747 19.7638 8.16572 19.7955C8.22926 19.8272 8.2928 19.8483 8.36694 19.8536C8.43578 19.8536 8.50462 19.8483 8.57345 19.8219C8.61052 19.8061 8.64229 19.7902 8.67406 19.7744H8.66877Z" fill="white"/>
<path d="M9.24063 20.0438C9.24063 20.0438 9.26181 20.0755 9.27769 20.0966C9.29358 20.1177 9.30417 20.1336 9.30417 20.1389C9.31476 20.1494 9.33065 20.1653 9.34653 20.1864C9.36771 20.2075 9.3783 20.2181 9.3783 20.2234C9.35712 20.2392 9.33065 20.2604 9.29358 20.2868C9.25651 20.3132 9.23004 20.329 9.21944 20.3396L9.17179 20.3766L9.07118 20.4558C9.07118 20.4558 9.10824 20.5087 9.14531 20.5509C9.17708 20.5985 9.19826 20.6196 9.19826 20.6249C9.21415 20.646 9.24063 20.6777 9.27769 20.72C9.31476 20.7623 9.33594 20.7834 9.33594 20.7887L9.48951 20.6672C9.48951 20.6672 9.52657 20.6355 9.54246 20.6249C9.59541 20.5773 9.62189 20.5509 9.63248 20.5509C9.64307 20.5615 9.65366 20.5826 9.66955 20.6038C9.68543 20.6249 9.69602 20.6407 9.69602 20.646C9.70661 20.6566 9.7172 20.6724 9.73838 20.6936C9.75957 20.7147 9.77016 20.7253 9.77545 20.7306C9.75427 20.7464 9.73309 20.7623 9.7172 20.7728C9.65366 20.8151 9.62189 20.8362 9.61659 20.8362L9.36242 21.0317C9.31476 21.0687 9.2724 21.1056 9.23533 21.1373C9.10824 21.2483 9.03411 21.3064 9.02881 21.317C9.01822 21.3064 9.00763 21.2853 8.99175 21.2641C8.97586 21.243 8.97057 21.2272 8.96527 21.2272C8.95468 21.2113 8.93879 21.1955 8.91761 21.1743C8.89643 21.1532 8.88584 21.1373 8.88055 21.1373L9.0394 21.0264L9.19826 20.9049L9.25122 20.8626L9.12413 20.6936L8.98645 20.5298L8.85407 20.6355C8.8223 20.6566 8.78523 20.6936 8.73228 20.7358C8.67932 20.7781 8.64755 20.8098 8.63167 20.8204C8.62108 20.8098 8.61049 20.794 8.5946 20.7728C8.57871 20.7517 8.57342 20.7358 8.56812 20.7358C8.55753 20.72 8.54165 20.7041 8.52047 20.683C8.49928 20.6619 8.48869 20.6513 8.4834 20.646C8.52576 20.6143 8.57342 20.5773 8.63696 20.5298C8.77464 20.4294 8.85936 20.3713 8.89643 20.3396C8.94409 20.3026 8.98645 20.2656 9.02352 20.234C9.1559 20.123 9.22474 20.0649 9.23004 20.0543L9.24063 20.0438Z" fill="white"/>
<path d="M9.61139 21.5864C9.61139 21.5072 9.64846 21.4226 9.712 21.3434C9.74377 21.3011 9.78084 21.2589 9.81791 21.2219C9.85497 21.1849 9.89734 21.1585 9.9397 21.1321C9.98206 21.1109 10.0297 21.1004 10.0827 21.1004C10.1144 21.1004 10.1409 21.1004 10.1621 21.1109C10.1833 21.1162 10.2098 21.1321 10.2362 21.1532C10.3157 21.2113 10.3474 21.2906 10.3421 21.3909C10.3368 21.4755 10.2998 21.5547 10.2415 21.6392C10.2098 21.6815 10.1727 21.7185 10.1409 21.7555C10.1039 21.7872 10.0668 21.8136 10.0244 21.8347C9.97147 21.8611 9.91852 21.8717 9.87086 21.8664C9.8232 21.8664 9.77554 21.8453 9.72789 21.8136C9.64846 21.7555 9.61139 21.6815 9.62198 21.5864H9.61139ZM10.4639 21.7079C10.4798 21.6762 10.4957 21.6392 10.501 21.6023C10.5116 21.5653 10.5169 21.523 10.5116 21.486C10.5116 21.4543 10.501 21.4121 10.4851 21.3698C10.4692 21.317 10.4428 21.2694 10.4057 21.2219C10.3686 21.1796 10.3315 21.1373 10.2786 21.1004C10.2203 21.0581 10.1568 21.0211 10.0933 21C10.0297 20.9789 9.96088 20.9683 9.89204 20.9736C9.8232 20.9736 9.75436 21 9.69611 21.0317C9.63787 21.0687 9.58491 21.1109 9.54255 21.169C9.50019 21.2272 9.46842 21.2853 9.44723 21.3487C9.42605 21.4068 9.42605 21.4702 9.43664 21.5389C9.44723 21.6023 9.47371 21.6656 9.51078 21.7238C9.55314 21.7819 9.6008 21.8294 9.65905 21.8717C9.72259 21.9192 9.78084 21.9509 9.84438 21.9721C9.90793 21.9932 9.97147 21.9985 10.0456 21.9932C10.1144 21.9879 10.1833 21.9668 10.2415 21.9351C10.3051 21.8981 10.3527 21.8506 10.3951 21.7977C10.4216 21.766 10.4375 21.7343 10.4533 21.7026L10.4639 21.7079Z" fill="white"/>
<path d="M10.6221 21.8453L10.834 21.486C10.834 21.486 10.8498 21.4913 10.8604 21.5019C10.871 21.5072 10.8816 21.5124 10.8816 21.5124C10.8922 21.5177 10.9028 21.523 10.9134 21.523C10.924 21.523 10.9293 21.523 10.9346 21.523C10.9346 21.6287 10.9399 21.7132 10.9452 21.766C10.9452 21.7872 10.9505 21.8664 10.961 22.009C10.961 22.0883 10.9716 22.1728 10.9769 22.2521L11.1146 22.1358C11.2576 22.0143 11.3953 21.8928 11.5276 21.7713H11.5382C11.5382 21.7713 11.5541 21.7872 11.5594 21.7924C11.5647 21.7924 11.5753 21.7977 11.5806 21.803C11.6018 21.8136 11.6177 21.8189 11.6335 21.8189C11.5859 21.9826 11.5488 22.1147 11.5171 22.2151C11.4906 22.3155 11.4694 22.3947 11.4535 22.4475L11.39 22.6853C11.39 22.6853 11.39 22.6958 11.39 22.7117C11.39 22.7275 11.3847 22.7381 11.3794 22.7434C11.3635 22.7381 11.3476 22.7275 11.3211 22.717C11.2946 22.7064 11.2841 22.6958 11.2788 22.6958C11.2629 22.6906 11.247 22.6853 11.2205 22.6747C11.194 22.6641 11.1782 22.6589 11.1729 22.6589C11.2099 22.5743 11.2417 22.4792 11.2735 22.3683C11.3052 22.2573 11.337 22.1517 11.3635 22.046C11.3052 22.0989 11.247 22.1517 11.1834 22.1992C11.1252 22.2521 11.067 22.3049 11.0087 22.3524C10.9663 22.3894 10.9081 22.4423 10.834 22.5109C10.8234 22.5056 10.8128 22.5004 10.8022 22.4951C10.8022 22.4951 10.7916 22.4951 10.781 22.4951L10.7651 22.2468C10.7651 22.1675 10.7545 22.0936 10.7545 22.0249C10.7545 21.9509 10.7439 21.877 10.7386 21.803L10.6168 22.0196L10.5427 22.157L10.4792 22.2785L10.4421 22.3577C10.4421 22.3577 10.4103 22.3366 10.405 22.3366C10.3944 22.3366 10.3892 22.3313 10.3839 22.326C10.368 22.3207 10.3468 22.3102 10.3203 22.3102C10.3203 22.3049 10.3256 22.2943 10.3309 22.289C10.3309 22.289 10.3362 22.2785 10.3468 22.2679C10.3574 22.2468 10.3786 22.2204 10.405 22.1781C10.4209 22.1464 10.4421 22.1147 10.4686 22.0777C10.4898 22.0407 10.5162 22.0038 10.5427 21.9562C10.5692 21.9087 10.5904 21.877 10.6063 21.8506L10.6221 21.8453Z" fill="white"/>
<path d="M12.0949 21.9298C12.0949 21.9298 12.0843 21.9721 12.0737 21.9932C12.0525 22.0513 12.0419 22.0883 12.0366 22.1042C12.0313 22.1359 12.0155 22.1781 11.9996 22.2362C11.9837 22.2943 11.9678 22.3366 11.9625 22.3683C11.9572 22.4 11.9466 22.4476 11.9307 22.5057C11.9149 22.5691 11.9043 22.6166 11.899 22.643C11.899 22.6589 11.8884 22.7011 11.8725 22.7698C11.8725 22.7962 11.8619 22.8227 11.8566 22.8438C11.8407 22.8438 11.8248 22.8332 11.7984 22.8227C11.7719 22.8121 11.756 22.8068 11.7507 22.8068C11.7136 22.7962 11.6766 22.791 11.6289 22.7804C11.6395 22.7328 11.6607 22.6694 11.6819 22.6008C11.7348 22.437 11.7613 22.3366 11.7719 22.2943L11.7931 22.2204L11.8354 22.046C11.8354 22.046 11.846 21.9985 11.8513 21.9721C11.8566 21.9457 11.8619 21.914 11.8725 21.8664C11.8884 21.8664 11.9096 21.877 11.936 21.8876C11.9625 21.8981 11.9784 21.9034 11.9837 21.9034C11.9996 21.9034 12.0208 21.914 12.0472 21.9193C12.0737 21.9193 12.0896 21.9245 12.0949 21.9298Z" fill="white"/>
<path d="M12.2794 22.9442H12.2688L12.2159 22.9283C12.1947 22.9283 12.1735 22.9283 12.1523 22.9283C12.1735 22.8385 12.1947 22.7381 12.2159 22.6219C12.2371 22.5057 12.2582 22.3894 12.2741 22.2838L12.3059 22.0619V21.9985C12.3324 22.0091 12.3536 22.0144 12.3747 22.0144C12.3906 22.0144 12.4118 22.0144 12.4383 22.0144C12.4648 22.0566 12.523 22.1359 12.6077 22.2574C12.6607 22.3366 12.7189 22.4211 12.7772 22.5004C12.846 22.6061 12.9043 22.6853 12.9413 22.7487L12.989 22.4476L13.0102 22.2944C13.0102 22.2944 13.0102 22.2468 13.0208 22.2098C13.0208 22.1728 13.0261 22.1464 13.0314 22.1253V22.0989C13.0314 22.0989 13.0578 22.1042 13.0684 22.1094C13.079 22.1094 13.0843 22.1094 13.0949 22.1147C13.1002 22.1147 13.1108 22.1147 13.1267 22.1147C13.1426 22.1147 13.1532 22.1147 13.1585 22.1147L13.1426 22.1887C13.1426 22.1887 13.1373 22.231 13.132 22.2521C13.1161 22.3102 13.1108 22.3472 13.1108 22.363C13.1055 22.4053 13.0949 22.4528 13.0896 22.5004C13.079 22.5479 13.0737 22.5902 13.0684 22.6219L13.0472 22.7593L13.0049 23.0498H12.989C12.989 23.0498 12.9625 23.034 12.9519 23.034C12.936 23.034 12.9149 23.034 12.8937 23.034C12.8407 22.9442 12.7984 22.8808 12.7719 22.8438C12.7295 22.7751 12.6872 22.7117 12.6501 22.6536C12.6183 22.6113 12.576 22.5479 12.523 22.4687L12.3959 22.2891L12.3642 22.474L12.343 22.6008C12.343 22.6272 12.3324 22.7064 12.3165 22.8227C12.3112 22.8702 12.3059 22.9125 12.3006 22.9547L12.2794 22.9442Z" fill="white"/>
<path d="M14.1865 22.1517C14.1865 22.1834 14.1759 22.2204 14.1759 22.2521C14.1759 22.2838 14.1759 22.3155 14.1706 22.3577L14.1601 22.4951L14.1495 22.6483C14.1495 22.754 14.1389 22.8279 14.123 22.8702C14.1018 22.9441 14.0594 23.0023 13.9906 23.0445C13.9535 23.0709 13.9165 23.0868 13.8688 23.0973C13.8212 23.1079 13.7735 23.1132 13.7258 23.1079C13.6305 23.1079 13.5511 23.0868 13.4823 23.0498C13.4028 23.0075 13.3552 22.9441 13.334 22.8596C13.334 22.8543 13.334 22.8385 13.334 22.8279C13.334 22.8121 13.334 22.8015 13.334 22.7909C13.334 22.7804 13.334 22.7698 13.334 22.7592C13.334 22.7487 13.334 22.7381 13.334 22.7275C13.334 22.7117 13.334 22.7011 13.334 22.6906V22.5215L13.3393 22.3472V22.1887V22.1306C13.3552 22.1306 13.3763 22.1306 13.4028 22.1306C13.4293 22.1306 13.4505 22.1358 13.4558 22.1358C13.4928 22.1358 13.5299 22.1358 13.567 22.1358L13.5564 22.2045C13.5564 22.2415 13.5564 22.2943 13.5458 22.3683C13.5405 22.4423 13.5352 22.4951 13.5352 22.5321V22.5955C13.5352 22.6324 13.5352 22.6641 13.5352 22.7011C13.5352 22.7381 13.5352 22.7698 13.5405 22.8068C13.5458 22.8438 13.5511 22.8702 13.5617 22.8913C13.5723 22.9124 13.5882 22.9389 13.6093 22.96C13.6517 23.0023 13.7047 23.0234 13.7629 23.0234C13.8264 23.0234 13.8794 23.0128 13.9165 22.9917C13.9535 22.9653 13.9853 22.923 14.0118 22.8649C14.0224 22.8385 14.033 22.8015 14.0383 22.754C14.0383 22.7064 14.0436 22.6483 14.0489 22.5796C14.0489 22.5321 14.0489 22.4634 14.0489 22.3736C14.0489 22.2838 14.0489 22.2098 14.0489 22.1623C14.0647 22.1623 14.0753 22.1675 14.0859 22.1675C14.0912 22.1675 14.1071 22.1675 14.1177 22.1675C14.1336 22.1675 14.1442 22.1675 14.1495 22.1675C14.1601 22.1675 14.1706 22.1675 14.1865 22.1675V22.1517Z" fill="white"/>
<path d="M14.4296 22.5691L14.4455 22.1517C14.4455 22.1517 14.4614 22.1517 14.4773 22.1517C14.4932 22.1517 14.4985 22.1517 14.5038 22.1517C14.5144 22.1517 14.525 22.1517 14.5356 22.1464C14.5461 22.1464 14.5514 22.1464 14.5567 22.1411C14.6097 22.2362 14.652 22.3049 14.6785 22.3525C14.6891 22.3736 14.7315 22.4423 14.8056 22.5585C14.848 22.6272 14.8903 22.6958 14.9327 22.7645L15.0015 22.5955C15.0704 22.4211 15.1339 22.2468 15.1975 22.0777H15.2133C15.2133 22.0777 15.2292 22.0777 15.2345 22.0777C15.2398 22.0777 15.2504 22.0777 15.2557 22.0777C15.2769 22.0777 15.2981 22.0777 15.314 22.0672C15.351 22.2309 15.3775 22.3683 15.3987 22.474C15.4199 22.5743 15.441 22.6536 15.4516 22.7064L15.5046 22.9442C15.5046 22.9442 15.5046 22.9547 15.5099 22.9706C15.5099 22.9864 15.5152 22.997 15.5152 23.0023C15.4993 23.0023 15.4781 23.0023 15.4516 23.0023C15.4252 23.0023 15.4093 23.0023 15.404 23.0023C15.3881 23.0023 15.3669 23.0023 15.3404 23.0128C15.314 23.0128 15.2981 23.0234 15.2928 23.0234C15.2875 22.9336 15.2663 22.8332 15.2451 22.7223C15.2186 22.6113 15.1975 22.5004 15.1763 22.3947C15.1498 22.4687 15.118 22.5426 15.0916 22.6166C15.0651 22.6906 15.0333 22.7645 15.0068 22.8332C14.9857 22.8808 14.9592 22.96 14.9274 23.0551C14.9115 23.0551 14.9009 23.0551 14.8956 23.0551C14.8956 23.0551 14.885 23.0551 14.8745 23.0551L14.7474 22.8438C14.705 22.7751 14.6679 22.7117 14.6309 22.6536C14.5938 22.5902 14.5514 22.5268 14.5144 22.4634V22.7117V22.8702V23.0075L14.5197 23.0921C14.4985 23.0921 14.4826 23.0921 14.4773 23.0921C14.4667 23.0921 14.4614 23.0921 14.4561 23.0921C14.4349 23.0921 14.4138 23.0974 14.3926 23.1026C14.3926 23.0921 14.3926 23.0868 14.3926 23.0762C14.3926 23.0762 14.3926 23.0657 14.3926 23.0498C14.3926 23.0287 14.3979 22.9917 14.4032 22.9442C14.4032 22.9072 14.4032 22.8702 14.4138 22.8279C14.4138 22.7857 14.4191 22.7381 14.4243 22.6853C14.4243 22.6325 14.4243 22.5902 14.4243 22.5638L14.4296 22.5691Z" fill="white"/>
<path d="M16.1555 22.0619C16.1397 22.0143 16.1344 21.9774 16.1238 21.9615C16.1397 21.9509 16.1502 21.9457 16.1608 21.9457C16.1661 21.9457 16.1767 21.9457 16.1873 21.9351C16.2244 21.9245 16.2614 21.9245 16.2985 21.9351C16.3144 21.9404 16.3303 21.9562 16.3462 21.9774C16.3621 21.9985 16.3726 22.0196 16.3779 22.0355C16.3885 22.0619 16.3885 22.0883 16.3885 22.1147C16.3885 22.1411 16.3779 22.1676 16.3674 22.1887C16.3515 22.2098 16.3356 22.2257 16.3197 22.2362C16.3038 22.2468 16.2773 22.2574 16.2456 22.2626C16.2403 22.2626 16.235 22.2626 16.2244 22.2679L16.1767 22.1306C16.1767 22.1306 16.1661 22.0989 16.1555 22.0513V22.0619ZM16.5474 22.1253C16.5792 22.0725 16.5845 22.0143 16.5686 21.9562C16.5474 21.8823 16.4997 21.84 16.4362 21.8242C16.3832 21.8083 16.3144 21.8136 16.2403 21.8347L16.0496 21.8981L15.9014 21.9404C15.912 21.9826 15.9331 22.0408 15.9649 22.12C15.9967 22.1992 16.0126 22.2574 16.0285 22.2943C16.0285 22.2996 16.0443 22.3525 16.0761 22.4476C16.1079 22.5426 16.1291 22.6166 16.1397 22.6589C16.1502 22.6906 16.1555 22.7223 16.1661 22.754C16.1767 22.7857 16.182 22.8174 16.1873 22.8438L16.2985 22.8015L16.4944 22.7434C16.4944 22.7434 16.5262 22.7328 16.5421 22.7276C16.558 22.7223 16.5686 22.717 16.5792 22.7117C16.6109 22.6959 16.6374 22.6747 16.6586 22.6589C16.6851 22.6377 16.701 22.6113 16.7168 22.5849C16.7486 22.5215 16.7539 22.4528 16.7327 22.3842C16.7115 22.3208 16.6692 22.2732 16.6109 22.2468C16.5845 22.2362 16.5527 22.2309 16.5209 22.2309C16.4891 22.2309 16.4574 22.2309 16.4309 22.2415V22.2309C16.4839 22.2045 16.5315 22.1623 16.558 22.12L16.5474 22.1253ZM16.2456 22.3525C16.2456 22.3525 16.2562 22.3525 16.2667 22.3419C16.2773 22.3419 16.2826 22.3366 16.2879 22.3313C16.3462 22.3102 16.3938 22.3155 16.4362 22.3313C16.4733 22.3525 16.505 22.3947 16.5262 22.4581C16.5421 22.5004 16.5421 22.5426 16.5262 22.5849C16.5209 22.6113 16.5103 22.6272 16.4891 22.643C16.4733 22.6589 16.4521 22.6694 16.4256 22.68L16.3621 22.6959L16.3038 22.5321L16.2456 22.3419V22.3525Z" fill="white"/>
<path d="M16.6639 21.7026L16.6533 21.6868C16.6533 21.6868 16.7063 21.6604 16.7539 21.6445C16.8016 21.6234 16.8334 21.6128 16.8545 21.597C16.8969 21.5759 16.9499 21.5494 17.0134 21.5177C17.0769 21.4808 17.1193 21.4596 17.1352 21.4543C17.1352 21.4702 17.1458 21.4913 17.1564 21.5125C17.1564 21.5125 17.1564 21.523 17.167 21.5283C17.167 21.5336 17.1723 21.5389 17.1776 21.5494L17.1881 21.56C17.1564 21.5759 17.1087 21.597 17.0452 21.6234C16.9816 21.6498 16.9287 21.6709 16.8969 21.6868L16.9604 21.8189L17.0293 21.9562L17.3099 21.8083C17.3099 21.8083 17.3205 21.8347 17.3205 21.8453C17.3205 21.8559 17.3258 21.8664 17.3311 21.8717C17.3311 21.8823 17.3417 21.8928 17.347 21.8981C17.347 21.8981 17.3576 21.9087 17.3629 21.914C17.3364 21.9245 17.2993 21.9404 17.2517 21.9615C17.1987 21.9826 17.1617 21.9985 17.1352 22.0091L17.0716 22.0355L17.1458 22.194L17.2252 22.3525C17.3152 22.3102 17.4053 22.2574 17.5059 22.194C17.5059 22.2098 17.5165 22.2309 17.527 22.2521C17.527 22.2521 17.527 22.2626 17.5376 22.2679C17.5376 22.2679 17.5429 22.2785 17.5482 22.2891L17.5588 22.3049C17.5588 22.3049 17.4953 22.3313 17.4423 22.3577C17.3894 22.3789 17.3523 22.3947 17.3258 22.4106L17.1829 22.4845L17.0716 22.5426L17.0399 22.4687L16.9287 22.231L16.8387 22.0408L16.7645 21.8928C16.7486 21.8611 16.738 21.8347 16.7275 21.8189C16.6851 21.7396 16.6586 21.6974 16.6586 21.6974L16.6639 21.7026Z" fill="white"/>
<path d="M17.9144 22.083H17.9038L17.8562 22.1147C17.8403 22.1253 17.8244 22.1411 17.8085 22.157C17.7609 22.083 17.7026 21.9932 17.6338 21.8928C17.5649 21.7925 17.4961 21.7027 17.4326 21.6128L17.3002 21.4385L17.2578 21.3857C17.2578 21.3857 17.2949 21.3645 17.3108 21.354C17.3267 21.3434 17.3425 21.3276 17.3584 21.3117C17.4061 21.3223 17.5067 21.3381 17.6497 21.3645C17.745 21.3804 17.8403 21.4015 17.9409 21.4174C18.0627 21.4438 18.1633 21.4596 18.2321 21.4755L18.0521 21.2325L17.9568 21.111C17.9568 21.111 17.9303 21.074 17.9038 21.0476C17.8774 21.0211 17.8615 21 17.8509 20.9842L17.835 20.963C17.835 20.963 17.8562 20.9525 17.8668 20.9472C17.8774 20.9472 17.8827 20.9366 17.888 20.9313C17.888 20.9313 17.8985 20.9208 17.9091 20.9102C17.9197 20.8996 17.925 20.8944 17.9303 20.8891L17.9727 20.9525C17.9727 20.9525 17.9992 20.9842 18.0097 21.0053C18.0415 21.0528 18.0627 21.0845 18.0733 21.1004C18.0998 21.1321 18.1262 21.1744 18.1527 21.2113C18.1792 21.2536 18.2057 21.2853 18.2216 21.3117L18.3063 21.4227L18.481 21.6551H18.4651C18.4651 21.6551 18.444 21.6762 18.4334 21.6815C18.4175 21.6921 18.4069 21.7079 18.391 21.7238C18.2904 21.7027 18.2163 21.6815 18.1686 21.6762C18.0892 21.6604 18.015 21.6445 17.9462 21.6287C17.8932 21.6181 17.8191 21.6076 17.7238 21.5864L17.5067 21.5494L17.6126 21.7027L17.6867 21.803C17.6867 21.803 17.7503 21.8823 17.8244 21.9774C17.8562 22.0144 17.8827 22.046 17.9091 22.083H17.9144Z" fill="white"/>
<path d="M18.0462 20.7834L18.0303 20.7728C18.0303 20.7728 18.0726 20.7305 18.1044 20.6936C18.1415 20.6619 18.168 20.6355 18.1838 20.6143C18.2156 20.5826 18.2527 20.5351 18.3003 20.477C18.348 20.4189 18.3798 20.3872 18.3904 20.3766C18.4009 20.3924 18.4168 20.403 18.4327 20.4189C18.4327 20.4189 18.4433 20.4241 18.4486 20.4294C18.4539 20.4294 18.4592 20.44 18.4698 20.4453L18.4857 20.4558C18.4857 20.4558 18.4221 20.5192 18.3745 20.5668C18.3215 20.6143 18.2844 20.6513 18.2633 20.6777L18.3692 20.7781L18.4857 20.8838L18.6869 20.646C18.6869 20.646 18.7028 20.6672 18.7134 20.6724C18.7187 20.683 18.724 20.6883 18.7345 20.6936C18.7451 20.7041 18.7504 20.7094 18.7557 20.7094C18.761 20.7094 18.7663 20.72 18.7769 20.72C18.761 20.7411 18.7293 20.7675 18.6922 20.8098C18.6551 20.8468 18.6233 20.8785 18.6022 20.8996L18.5545 20.9472L18.6869 21.0634L18.8193 21.1796C18.8828 21.1056 18.9517 21.0211 19.0205 20.9313C19.0311 20.9472 19.047 20.963 19.0629 20.9736C19.0629 20.9736 19.0734 20.9789 19.0787 20.9841C19.084 20.9841 19.0893 20.9947 19.0999 21L19.1158 21.0105C19.1158 21.0105 19.0682 21.0634 19.0311 21.1004C18.994 21.1426 18.9622 21.169 18.9411 21.1902L18.8352 21.3117L18.7557 21.4068L18.6975 21.3539L18.5069 21.1743L18.3533 21.0317L18.2315 20.926C18.2315 20.926 18.1838 20.8838 18.1732 20.8732C18.1044 20.8151 18.0673 20.7834 18.0673 20.7834H18.0462Z" fill="white"/>
<path d="M18.4807 20.2868L18.4648 20.2762C18.4648 20.2762 18.5019 20.2287 18.5284 20.1864C18.5602 20.1494 18.5813 20.1177 18.5919 20.0966C18.6184 20.0596 18.6502 20.0121 18.6872 19.9487C18.7243 19.8853 18.7508 19.8483 18.7614 19.8377C18.772 19.8483 18.7879 19.8642 18.809 19.8747C18.809 19.8747 18.8196 19.88 18.8249 19.8853C18.8302 19.8853 18.8355 19.8906 18.8461 19.8959H18.862C18.8408 19.9328 18.809 19.9751 18.7667 20.0279C18.7243 20.086 18.6925 20.123 18.6714 20.1547L18.7879 20.234L18.9149 20.3238L19.0791 20.0543C19.0791 20.0543 19.1003 20.0755 19.1056 20.0808C19.1109 20.086 19.1215 20.0913 19.1268 20.0966C19.1373 20.1019 19.1426 20.1072 19.1532 20.1125C19.1585 20.1125 19.1691 20.1177 19.1744 20.123C19.1585 20.1442 19.1373 20.1759 19.1003 20.2234C19.0685 20.2657 19.042 20.2974 19.0261 20.3238L18.9891 20.3766L19.1215 20.4664L19.3703 20.6196C19.3703 20.6196 19.3492 20.646 19.3333 20.6672C19.3174 20.6883 19.3068 20.7042 19.3015 20.7094C19.2909 20.72 19.2803 20.7411 19.2697 20.7623C19.2591 20.7887 19.2485 20.7992 19.2433 20.8045L19.1797 20.757L18.9679 20.6091L18.7932 20.4875L18.6555 20.3977C18.629 20.3766 18.6025 20.366 18.5866 20.3555C18.5072 20.3079 18.4701 20.2868 18.4648 20.2815L18.4807 20.2868Z" fill="white"/>
<path d="M18.9257 19.5155C18.9257 19.5155 18.9627 19.5366 18.9839 19.5472C19.0369 19.5789 19.0686 19.6 19.0845 19.6053C19.111 19.6211 19.1534 19.6423 19.201 19.674C19.254 19.7057 19.291 19.7268 19.3175 19.7426C19.344 19.7585 19.3863 19.7796 19.4446 19.806C19.5028 19.8325 19.5452 19.8536 19.577 19.8694C19.5929 19.8747 19.6299 19.8959 19.6935 19.9223C19.7199 19.9328 19.7411 19.9434 19.7623 19.954C19.757 19.9698 19.7464 19.9857 19.7305 20.0068C19.7147 20.0279 19.7094 20.0438 19.7041 20.0491C19.6882 20.0808 19.6723 20.1177 19.6511 20.16C19.6035 20.1389 19.5505 20.1072 19.487 20.0649C19.3387 19.9804 19.2487 19.9275 19.2116 19.9064L19.1428 19.8694L18.9839 19.7902C18.9839 19.7902 18.9362 19.7691 18.9151 19.7585C18.8939 19.7479 18.8568 19.7321 18.8145 19.7162C18.8197 19.7004 18.8303 19.6845 18.8462 19.6634C18.8621 19.6423 18.8674 19.6264 18.8727 19.6211C18.878 19.6053 18.8886 19.5842 18.8992 19.563C18.9098 19.5366 18.9151 19.5208 18.9204 19.5208L18.9257 19.5155Z" fill="white"/>
<path d="M20.0161 18.9291L20.0267 18.9132L20.1273 18.9819C20.1273 19.0242 20.1273 19.0717 20.1273 19.1192C20.122 19.1668 20.1061 19.2143 20.0902 19.2619C20.0744 19.3042 20.0585 19.3359 20.0426 19.3623C20.0426 19.3623 20.0267 19.3834 20.0055 19.4204C19.9949 19.4362 19.9737 19.4574 19.9526 19.4838C19.9314 19.5049 19.9102 19.526 19.889 19.5366C19.8678 19.5525 19.8467 19.563 19.8255 19.5736C19.8043 19.5842 19.7831 19.5894 19.7619 19.5947C19.7143 19.6106 19.6666 19.6158 19.619 19.6106C19.5713 19.6106 19.5236 19.5947 19.476 19.5789C19.3966 19.5472 19.3277 19.5102 19.2801 19.4679C19.2324 19.4257 19.19 19.3675 19.1636 19.2883C19.1424 19.2249 19.1318 19.1615 19.1371 19.0875C19.1371 19.0136 19.1583 18.9449 19.1847 18.8762C19.2006 18.8287 19.2271 18.7864 19.2536 18.7442C19.2801 18.7019 19.3118 18.6649 19.3489 18.6332C19.3648 18.6438 19.386 18.6543 19.4072 18.6702C19.4283 18.686 19.4495 18.6966 19.4707 18.7125V18.7283C19.4177 18.7389 19.3807 18.76 19.3436 18.7917C19.3065 18.8234 19.2801 18.8604 19.2642 18.9026C19.2271 19.003 19.2377 19.0981 19.3012 19.1826C19.3542 19.2566 19.4336 19.3147 19.5395 19.357C19.5872 19.3781 19.6401 19.3887 19.6878 19.394C19.7355 19.3992 19.7831 19.394 19.8308 19.3834C19.8784 19.3675 19.9155 19.3464 19.9526 19.3094C19.9896 19.2777 20.0161 19.2355 20.032 19.1879C20.0479 19.1509 20.0532 19.1034 20.0532 19.0559C20.0532 19.0083 20.0426 18.9608 20.0267 18.9238L20.0161 18.9291Z" fill="white"/>
<path d="M19.3756 18.274C19.3756 18.274 19.418 18.2845 19.4392 18.2951C19.4974 18.3162 19.5345 18.3268 19.5504 18.3321C19.5821 18.3374 19.6245 18.3532 19.6828 18.3691C19.741 18.3849 19.7834 18.4008 19.8151 18.406C19.8469 18.4113 19.8946 18.4219 19.9528 18.4377C20.0164 18.4536 20.064 18.4642 20.0958 18.4694C20.1117 18.4694 20.154 18.48 20.2229 18.4958C20.2494 18.4958 20.2758 18.5064 20.297 18.5117C20.297 18.5275 20.2864 18.5434 20.2758 18.5698C20.2652 18.5962 20.2599 18.6121 20.2599 18.6174C20.2494 18.6543 20.2441 18.6913 20.2335 18.7389C20.1858 18.723 20.1223 18.7072 20.0534 18.686C19.8946 18.6332 19.7887 18.6068 19.7463 18.5909L19.6722 18.5698L19.4974 18.5275C19.4974 18.5275 19.4498 18.517 19.4233 18.5064C19.3968 18.5064 19.365 18.4959 19.3174 18.4853C19.3174 18.4694 19.328 18.4483 19.3386 18.4219C19.3492 18.3955 19.3544 18.3796 19.3544 18.3743C19.3544 18.3585 19.365 18.3374 19.365 18.3109C19.365 18.2845 19.3703 18.2687 19.3756 18.2634V18.274Z" fill="white"/>
<path d="M20.2444 17.9675C20.1703 17.9992 20.0855 18.0098 19.9849 17.9939C19.932 17.9834 19.879 17.9728 19.8314 17.957C19.7837 17.9411 19.7361 17.92 19.699 17.8936C19.6619 17.8672 19.6301 17.8302 19.6037 17.7826C19.5878 17.7562 19.5772 17.7298 19.5772 17.7087C19.5772 17.6875 19.5772 17.6558 19.5772 17.6241C19.5931 17.529 19.646 17.4604 19.7361 17.4234C19.8102 17.3917 19.9002 17.3811 20.0008 17.397C20.0538 17.4075 20.1014 17.4181 20.1491 17.4339C20.1967 17.4498 20.2391 17.4709 20.2709 17.4973C20.3185 17.5343 20.3503 17.5766 20.3715 17.6189C20.3927 17.6664 20.398 17.7139 20.3927 17.7668C20.3768 17.8619 20.3291 17.9306 20.2391 17.9675H20.2444ZM19.9532 17.1592C19.9161 17.1592 19.879 17.1645 19.842 17.1751C19.8049 17.1856 19.7678 17.2015 19.7361 17.2173C19.7096 17.2332 19.6778 17.2596 19.646 17.2913C19.609 17.3336 19.5772 17.3758 19.5507 17.4287C19.5295 17.4762 19.5137 17.5343 19.5031 17.5977C19.4925 17.6717 19.4925 17.7404 19.5031 17.8038C19.5137 17.8724 19.5348 17.9306 19.5772 17.9939C19.6143 18.0521 19.6619 18.1049 19.7202 18.1419C19.7784 18.1789 19.842 18.2053 19.9161 18.2158C19.9902 18.2264 20.0538 18.2264 20.1173 18.2158C20.1809 18.2053 20.2391 18.1789 20.2921 18.1366C20.345 18.0943 20.3874 18.0468 20.4191 17.9834C20.4509 17.92 20.4721 17.8566 20.4827 17.7826C20.4933 17.7087 20.4933 17.64 20.4827 17.5713C20.4721 17.5079 20.4456 17.4445 20.4086 17.3864C20.3715 17.3283 20.3238 17.2807 20.2656 17.2385C20.2073 17.2015 20.1385 17.1751 20.0697 17.1645C20.0326 17.1592 19.9902 17.1539 19.9585 17.1592H19.9532Z" fill="white"/>
<path d="M11.8504 19.2619V18.9977L11.8399 18.9872C11.7869 19.0189 11.7287 19.0453 11.6651 19.077C11.6545 19.0611 11.6492 19.0453 11.6386 19.0347C11.628 19.0189 11.6174 19.0083 11.6016 18.9924V18.9819C11.6757 18.9555 11.7551 18.9291 11.8346 18.8921C11.8981 18.8657 11.9722 18.8287 12.0623 18.7811L12.094 18.7917C12.094 18.8551 12.094 18.9343 12.094 19.0241C12.0887 19.2302 12.0834 19.3623 12.0834 19.4151V19.5102C12.0834 19.5472 12.0834 19.6106 12.0834 19.6898C12.0834 19.7691 12.0834 19.8272 12.0834 19.8694H12.0675C12.0358 19.8694 12.0146 19.8641 11.9987 19.8641C11.9828 19.8641 11.9722 19.8641 11.9563 19.8641C11.9405 19.8641 11.914 19.8641 11.8875 19.8641C11.8557 19.8641 11.8399 19.8641 11.8293 19.8641L11.8399 19.7374C11.8399 19.6634 11.8399 19.563 11.8399 19.4468C11.8399 19.3306 11.8399 19.2619 11.8399 19.2408L11.8504 19.2619Z" fill="white"/>
<path d="M13.3917 19.2936C13.3705 19.3464 13.3335 19.3728 13.2805 19.3728C13.2276 19.3728 13.2011 19.3517 13.1799 19.3094C13.1693 19.283 13.1587 19.2408 13.1534 19.1879V19.114C13.1534 19.0559 13.1534 19.003 13.1746 18.9608C13.1958 18.9027 13.2329 18.871 13.2858 18.871C13.3441 18.871 13.3811 18.9027 13.4023 18.9713C13.4129 19.0083 13.4235 19.0664 13.4235 19.1404C13.4235 19.1985 13.4129 19.246 13.397 19.2883L13.3917 19.2936ZM13.0105 19.8272C13.0105 19.8272 13.0158 19.8483 13.0211 19.8642C13.0211 19.8747 13.0316 19.8853 13.0369 19.8853C13.0422 19.8853 13.0475 19.8853 13.0528 19.8906C13.074 19.8959 13.0846 19.9011 13.0952 19.9011C13.1058 19.9011 13.1217 19.9011 13.1428 19.9011C13.217 19.9011 13.2911 19.8853 13.36 19.8483C13.4288 19.8113 13.487 19.7638 13.5241 19.7004C13.5665 19.637 13.5982 19.5683 13.6141 19.4891C13.6353 19.4098 13.6406 19.3306 13.6406 19.2461C13.6406 19.1879 13.6353 19.1351 13.6194 19.077C13.6035 19.0189 13.5824 18.9713 13.5506 18.9344C13.5135 18.8868 13.4712 18.8551 13.4182 18.834C13.3652 18.8128 13.307 18.8023 13.2435 18.8023C13.1905 18.8023 13.1481 18.8076 13.1058 18.8234C13.0634 18.8393 13.0264 18.8604 12.9946 18.8921C12.9522 18.9344 12.9257 18.9766 12.9099 19.0136C12.894 19.0559 12.8887 19.1034 12.8887 19.1668C12.8887 19.2566 12.9204 19.3253 12.9787 19.3781C13.0369 19.431 13.1164 19.4574 13.2064 19.4574C13.2858 19.4574 13.3494 19.431 13.397 19.3781H13.4076V19.3993C13.4076 19.4996 13.3864 19.5894 13.3441 19.674C13.2911 19.7744 13.2223 19.8272 13.127 19.8272C13.1058 19.8272 13.0793 19.8219 13.0528 19.8061C13.0369 19.7955 13.0158 19.7849 12.9893 19.7638L12.9787 19.7744C12.9787 19.7744 12.9999 19.8113 12.9999 19.8219L13.0105 19.8272Z" fill="white"/>
<path d="M14.5202 19.1615C14.5784 19.077 14.6155 19.0242 14.6314 18.9977H14.642V19.4468H14.3454L14.3348 19.4362C14.4143 19.32 14.4725 19.2249 14.5149 19.1615H14.5202ZM14.2289 19.4996C14.2289 19.4996 14.2289 19.5313 14.2289 19.5419C14.2289 19.5577 14.2289 19.5683 14.2289 19.5789C14.2289 19.5789 14.2289 19.5947 14.2289 19.6159H14.6473C14.6473 19.6687 14.6473 19.7162 14.6473 19.7585C14.6473 19.8008 14.642 19.843 14.6367 19.8747C14.642 19.8747 14.6578 19.8747 14.6896 19.8747C14.7214 19.8747 14.7426 19.8747 14.7585 19.8747C14.7796 19.8747 14.8008 19.8747 14.8167 19.8747C14.8326 19.8747 14.8485 19.8747 14.8697 19.8747H14.8855V19.8483V19.7796L14.875 19.6159L15.0126 19.6264C15.0126 19.5947 15.0126 19.5789 15.0073 19.5683C15.0073 19.563 15.0073 19.5472 15.0073 19.5313C15.0073 19.5155 15.0073 19.4996 15.0073 19.4838C15.0073 19.4679 15.0073 19.4574 15.0073 19.4415L14.8697 19.4521V19.151L14.875 18.9925C14.875 18.9872 14.875 18.9449 14.8802 18.8762C14.8802 18.8604 14.8802 18.834 14.8802 18.8076C14.8485 18.8128 14.8167 18.8181 14.7743 18.8181C14.7585 18.8181 14.7426 18.8181 14.7214 18.8181C14.7002 18.8181 14.6896 18.8181 14.6843 18.8128H14.6684C14.6473 18.8498 14.6155 18.8974 14.5784 18.9502C14.5572 18.9819 14.5255 19.0294 14.4831 19.0876L14.3666 19.2619L14.2236 19.4679C14.2236 19.4679 14.2236 19.4891 14.2236 19.5049L14.2289 19.4996Z" fill="white"/>
<path d="M15.8278 19.4151C15.849 19.3623 15.8861 19.3359 15.939 19.3359C15.9973 19.3359 16.0343 19.3676 16.0555 19.4257C16.0661 19.4626 16.0767 19.5208 16.0767 19.5894C16.0767 19.6476 16.0714 19.7004 16.0555 19.7426C16.0343 19.8008 15.9973 19.8325 15.9443 19.8325C15.8861 19.8325 15.849 19.8008 15.8278 19.7321C15.8172 19.6951 15.8066 19.637 15.8066 19.563C15.8066 19.5049 15.8172 19.4574 15.8331 19.4151H15.8278ZM16.1508 18.8181C16.1508 18.8181 16.1032 18.8128 16.0714 18.8128C16.0661 18.8128 16.0555 18.8128 16.0449 18.8128C16.0343 18.8128 16.0079 18.8128 15.9761 18.8234C15.9443 18.8234 15.9126 18.8393 15.8808 18.8498C15.849 18.8604 15.8225 18.8762 15.7961 18.8974C15.7166 18.9555 15.6584 19.0453 15.6213 19.1509C15.5895 19.246 15.5684 19.3517 15.5684 19.4574C15.5684 19.5155 15.5737 19.5683 15.5895 19.6159C15.6054 19.6687 15.6266 19.7162 15.6531 19.7585C15.6849 19.8008 15.7219 19.8377 15.7749 19.8642C15.7961 19.8747 15.8225 19.8853 15.8543 19.8906C15.8861 19.8959 15.9178 19.9011 15.9443 19.9011C16.0502 19.9011 16.1403 19.8694 16.2144 19.8008C16.2885 19.7374 16.3256 19.6528 16.3256 19.5472C16.3256 19.4521 16.2938 19.3781 16.2303 19.3253C16.1667 19.2725 16.0873 19.246 15.9973 19.246C15.9231 19.246 15.8649 19.2725 15.8172 19.3253H15.8066C15.8066 19.2672 15.8119 19.2143 15.8278 19.1668C15.8331 19.1404 15.8437 19.114 15.8543 19.077C15.8649 19.0453 15.8808 19.0083 15.9073 18.9819C15.9337 18.9502 15.9549 18.9291 15.9814 18.9132C16.0132 18.8921 16.0502 18.8815 16.082 18.8815C16.0979 18.8815 16.1138 18.8815 16.135 18.8815C16.1508 18.8815 16.1667 18.8815 16.1826 18.8921L16.1932 18.8815C16.1932 18.8815 16.172 18.8392 16.1667 18.8181H16.1508Z" fill="white"/>
<path d="M1.94373 12.5577C2.30381 12.5577 2.60034 12.2672 2.60034 11.9027C2.60034 11.5381 2.3091 11.2476 1.94373 11.2476C1.57835 11.2476 1.28711 11.5381 1.28711 11.9027C1.28711 12.2672 1.57835 12.5577 1.94373 12.5577Z" fill="white"/>
<path d="M26.0472 12.3411C26.4073 12.3411 26.7039 12.0506 26.7039 11.686C26.7039 11.3215 26.4126 11.0309 26.0472 11.0309C25.6819 11.0309 25.3906 11.3215 25.3906 11.686C25.3906 12.0506 25.6819 12.3411 26.0472 12.3411Z" fill="white"/>
<path d="M2.4043 7.02642L3.06621 6.13887L2.87558 6.01208L3.15093 5.64227L3.34156 5.76906L4.01407 4.86566L4.30001 5.05585L2.68495 7.22189L2.4043 7.02642Z" fill="white"/>
<path d="M4.64965 6.6302L4.19955 6.32907L3.88184 6.75171L4.33194 7.05285L4.64965 6.6302Z" fill="white"/>
<path d="M5.32747 5.74792L5.04682 5.56302L3.40527 7.76604L3.68063 7.95094L5.32747 5.74792Z" fill="white"/>
<path d="M3.99232 6.84679C3.64813 7.20076 3.24039 7.36453 3.01269 7.21132C2.74263 7.0317 2.82736 6.48226 3.19803 5.98038C3.5687 5.47849 4.09293 5.21962 4.36299 5.39925C4.58539 5.54717 4.56421 5.95925 4.33652 6.3766M3.9023 6.44528C4.09293 6.1917 4.14588 5.92227 4.02939 5.84302C3.91289 5.76377 3.65872 5.90642 3.47338 6.16C3.28275 6.41359 3.2245 6.68302 3.34629 6.76227C3.46809 6.84151 3.71697 6.69887 3.9023 6.44528Z" fill="white"/>
<path d="M4.15723 8.04603C3.83421 7.82942 3.89776 7.22716 4.3002 6.68829C4.69735 6.15471 5.28512 5.89584 5.60284 6.10716C5.92586 6.32376 5.86231 6.92603 5.45987 7.4649C5.06272 7.99848 4.47494 8.25735 4.15723 8.04603ZM5.17392 7.27471C5.4228 6.94188 5.48105 6.57735 5.30631 6.46112C5.13156 6.3449 4.78737 6.51924 4.53849 6.85207C4.28961 7.1849 4.23136 7.54942 4.4061 7.66565C4.58085 7.78188 4.92504 7.60754 5.17392 7.27471Z" fill="white"/>
<path d="M13.8682 0.623383H12.7773V3.1698H14.5301V1.88074H14.6837V3.1698H15.1549V0.623383H14.6889V1.51621H14.5354V0.633949H14.0694V2.83697H13.1851V0.908666H13.8682V0.623383Z" fill="white"/>
<path d="M24.1415 4.99246L25.4918 6.82039L23.5802 8.07775L23.7285 8.2785L23.432 8.46869L21.8857 6.36605L22.1823 6.17586L22.4576 6.55095L23.6544 5.7585L23.935 6.13888L22.7277 6.93133L22.8442 7.08454L24.0568 6.2868L24.3269 6.65133L23.109 7.45435L23.289 7.71322L24.9094 6.65133L23.8397 5.18265L24.1415 4.99246Z" fill="white"/>
<path d="M19.4387 1.60605L20.609 2.34039L20.4501 2.56756L19.2852 1.8385L19.4387 1.60605Z" fill="white"/>
<path d="M18.9939 1.81207L20.5719 2.8L20.3813 3.08L18.8086 2.09207L18.9939 1.81207Z" fill="white"/>
<path d="M20.9326 2.5517L21.3721 2.8317L20.9061 3.49207L21.1497 3.64528L20.9326 3.95698L20.6943 3.80377L20.4719 4.11547L20.043 3.84604L20.9326 2.5517Z" fill="white"/>
<path d="M18.3856 2.94263L20.4137 4.21583L19.9054 4.94489L19.4606 4.66489L19.7518 4.24225L18.1738 3.25432L18.3856 2.94263Z" fill="white"/>
<path d="M18.8142 2.4566C18.9996 2.18716 19.4232 2.1449 19.7568 2.35622C20.0904 2.56754 20.2122 2.9532 20.0269 3.22263C19.8415 3.49207 19.4179 3.53433 19.0843 3.32829C18.7507 3.11697 18.6289 2.73131 18.8142 2.46188V2.4566ZM19.2167 3.12754C19.3491 3.20679 19.5397 3.14867 19.6562 2.9849C19.7674 2.82641 19.7515 2.63094 19.6191 2.54641C19.4867 2.46716 19.2908 2.52528 19.1796 2.68377C19.0684 2.84226 19.0843 3.03773 19.2167 3.12226V3.12754Z" fill="white"/>
<path d="M0.916016 16.7155L3.11886 16.0657L3.20888 16.3668L2.29809 16.6362L2.63699 17.7774L3.54778 17.5079L3.6378 17.8091L1.43496 18.4589L1.34493 18.1577L2.37752 17.8513L2.03862 16.7102L1.00604 17.0166L0.916016 16.7155Z" fill="white"/>
<path d="M2.31357 19.3147C2.40888 19.1192 2.57304 18.966 2.80073 18.8498C3.08668 18.7072 3.33556 18.6649 3.54737 18.723C3.75918 18.7811 3.92334 18.9185 4.02924 19.1298C4.14044 19.3464 4.15633 19.5577 4.07161 19.7585C3.98688 19.9592 3.82802 20.1177 3.58444 20.2392C3.35674 20.3555 3.12904 20.403 2.89605 20.3819C2.66306 20.3607 2.48831 20.2287 2.36122 19.9857C2.22884 19.7268 2.21296 19.5049 2.31357 19.3094V19.3147ZM3.48912 18.4007C3.22436 18.3638 2.949 18.4166 2.67365 18.554C2.36652 18.7124 2.15471 18.9185 2.03291 19.1826C1.91642 19.4679 1.9376 19.769 2.09646 20.0807C2.26591 20.4189 2.52008 20.6143 2.84839 20.6777C3.12904 20.7306 3.42558 20.6777 3.72741 20.5245C4.00806 20.3819 4.20928 20.197 4.32048 19.9698C4.46346 19.6792 4.44228 19.3517 4.26224 18.9924C4.08749 18.6491 3.82802 18.4536 3.48383 18.406L3.48912 18.4007Z" fill="white"/>
<path d="M5.41207 20.9155L3.2357 21.8559L4.7025 20.7147L3.96116 22.7804L4.17827 23.0551L5.98926 21.6445L5.80922 21.4121L4.34242 22.5532L5.09435 20.4981L4.86666 20.2076L3.05566 21.6181L3.241 21.8506L5.41207 20.9155Z" fill="white"/>
<path d="M6.96843 22.4634L6.21121 22.2468C5.90408 22.2838 5.62872 22.4475 5.37984 22.7434C5.13096 23.0339 5.01447 23.3351 5.03565 23.6415C5.07272 23.9004 5.18921 24.1222 5.40102 24.2966C5.55988 24.4339 5.71874 24.5185 5.87231 24.5449C5.96233 24.566 6.08412 24.5607 6.24298 24.5449L6.1053 24.8196L6.25886 24.9464L7.05845 24.0113L6.29064 23.3562L6.12119 23.5517L6.6666 24.0166C6.49186 24.2173 6.31182 24.323 6.12648 24.323C5.94644 24.323 5.77699 24.2596 5.61813 24.1275C5.41162 23.9532 5.3163 23.763 5.33748 23.5517C5.35866 23.3456 5.45398 23.1343 5.63402 22.9283C5.84054 22.6906 6.04705 22.5532 6.26416 22.5268C6.47597 22.5004 6.6666 22.5532 6.82546 22.6906C6.96314 22.8068 7.05316 22.9336 7.09023 23.0656C7.13259 23.1977 7.11141 23.3404 7.03198 23.4936L7.26497 23.6943C7.41853 23.4355 7.45031 23.1819 7.35499 22.9441C7.29145 22.7804 7.17495 22.6272 7.0108 22.4845C6.77251 22.2785 6.50774 22.1992 6.21121 22.2309L6.96843 22.4634Z" fill="white"/>
<path d="M7.17004 25.4694L8.42502 23.5464L8.16026 23.3773L6.90527 25.3004L7.17004 25.4694Z" fill="white"/>
<path d="M7.64648 25.7336L8.74791 23.7208L9.01267 23.8634L8.47785 24.846L9.9976 24.4023L10.3736 24.6083L9.0921 24.9623L9.29862 26.6317L8.94383 26.4415L8.79027 25.0468L8.29781 25.1789L7.91654 25.8815L7.65178 25.7389L7.64648 25.7336Z" fill="white"/>
<path d="M11.2262 26.0294C11.1785 26.3094 11.1785 26.526 11.2262 26.6898C11.3162 26.9857 11.5492 27.1653 11.9357 27.234C12.317 27.3026 12.603 27.2075 12.7883 26.9592C12.8889 26.8219 12.963 26.6158 13.0107 26.3358L13.2331 25.0679L12.9207 25.0151L12.6771 26.4098C12.6506 26.5736 12.603 26.7004 12.5341 26.7849C12.407 26.9434 12.2164 27.0015 11.9569 26.9592C11.7398 26.9223 11.6021 26.8113 11.5386 26.6317C11.4962 26.5102 11.4909 26.3728 11.5174 26.2091L11.761 24.8143L11.4486 24.7615L11.2262 26.0294Z" fill="white"/>
<path d="M14.4666 25.0891L13.9212 27.3977L13.8788 25.5434L15.0967 27.3766H15.4462L15.3986 25.0785H15.102L15.1391 26.9434L13.9371 25.1102L13.5664 25.1208L13.6141 27.4136H13.9106L14.4666 25.0891Z" fill="white"/>
<path d="M15.9915 24.9411L16.5369 27.1758L16.145 24.9147L15.8379 24.9675L16.2297 27.2287L16.5422 27.1758L15.9915 24.9411Z" fill="white"/>
<path d="M16.3945 24.9094L16.7228 24.8038L17.9514 26.4626L17.9725 24.4023L18.3061 24.2966L18.2108 26.7374L17.8984 26.8377L16.3998 24.9094H16.3945Z" fill="white"/>
<path d="M21.0591 25.4113L20.9267 25.1683L19.6982 25.834L19.3276 25.1472L20.4449 24.5449L20.3178 24.3125L19.2005 24.9147L18.8669 24.3019L20.0742 23.6521L19.9418 23.4038L18.4697 24.2015L19.5659 26.2196L21.0591 25.4113Z" fill="white"/>
<path d="M20.6363 23.2294L21.2293 22.754C21.3141 22.6853 21.3882 22.6483 21.457 22.6325C21.5894 22.606 21.7059 22.6536 21.8065 22.7804C21.9018 22.8966 21.9336 23.0076 21.9071 23.1079C21.8754 23.2083 21.8065 23.3034 21.69 23.3932L21.1287 23.8423L20.6363 23.2347V23.2294ZM21.9124 24.8091L21.2929 24.043L21.8436 23.5992C21.9442 23.52 22.0236 23.4725 22.0872 23.4566C22.1984 23.4302 22.3043 23.4725 22.4049 23.5887L22.6591 23.874C22.7173 23.9426 22.7597 23.9849 22.7861 24.006C22.8126 24.0272 22.8338 24.043 22.855 24.0483L23.1515 23.8106L23.1197 23.7736C23.0668 23.7842 23.0138 23.7736 22.9556 23.726C22.9185 23.6996 22.8709 23.6521 22.8179 23.5887L22.6167 23.3562C22.532 23.2559 22.4472 23.1977 22.3784 23.1766C22.3043 23.1608 22.2248 23.166 22.1295 23.1925C22.1772 23.0868 22.1931 22.9811 22.1825 22.8808C22.1719 22.7751 22.1242 22.6694 22.0342 22.5638C21.8701 22.3577 21.6688 22.2838 21.4411 22.3472C21.3193 22.3789 21.1923 22.4476 21.0546 22.5585L20.2285 23.2242L21.6688 25.0098L21.9124 24.8143V24.8091Z" fill="white"/>
<path d="M22.3726 21.1744L23.5905 23.1396C23.8076 23.1132 24.0088 22.9917 24.1942 22.7804C24.353 22.5955 24.4536 22.4 24.496 22.1887C24.5331 21.9774 24.4589 21.7872 24.2683 21.6234C24.1147 21.4913 23.9506 21.4438 23.7705 21.4808C23.6699 21.5019 23.5534 21.56 23.4263 21.6551L23.1616 21.8506C22.9815 21.9827 22.8597 22.0566 22.7909 22.083C22.6903 22.12 22.595 22.0989 22.5102 22.0249C22.4308 21.9562 22.3938 21.8664 22.3885 21.7555C22.3885 21.6445 22.4414 21.5177 22.5632 21.3804C22.7115 21.2113 22.865 21.1268 23.0186 21.1374C23.1033 21.1374 23.1933 21.1796 23.2992 21.2483L23.4899 21.0264C23.2992 20.8574 23.1033 20.7993 22.9021 20.8521C22.7009 20.9049 22.5261 21.0211 22.3673 21.2008C22.1978 21.3962 22.1131 21.5917 22.1184 21.7872C22.1237 21.9827 22.2031 22.1464 22.362 22.2838C22.505 22.4106 22.6638 22.4476 22.8333 22.4C22.9286 22.3736 23.061 22.2996 23.2304 22.1728L23.4899 21.9827C23.6276 21.8823 23.7441 21.8189 23.8394 21.7925C23.9294 21.7713 24.0247 21.7925 24.1147 21.8823C24.2418 21.9932 24.2683 22.1359 24.1942 22.3208C24.1571 22.4159 24.0988 22.5057 24.0247 22.5955C23.8553 22.791 23.6752 22.8808 23.4952 22.8596C23.3999 22.8438 23.2992 22.8015 23.1933 22.7223L23.0027 22.9442C23.188 23.1079 23.3893 23.1766 23.6011 23.1502L22.3726 21.1744Z" fill="white"/>
<path d="M25.2847 21.2377L23.3837 19.9487L23.209 20.2075L25.11 21.4966L25.2847 21.2377Z" fill="white"/>
<path d="M23.5434 19.7743L24.4065 18.126L24.6501 18.2528L24.29 18.9396L26.0851 19.8747L25.9369 20.1547L24.1417 19.2196L23.7817 19.9064L23.5381 19.7796L23.5434 19.7743Z" fill="white"/>
<path d="M24.724 17.1645L26.8633 18.0151L26.9586 17.7192L26.0743 17.4392L25.0311 16.1977L24.9199 16.5411L25.7724 17.5026L24.5175 17.7932L24.4062 18.1366L25.979 17.7298L26.8633 18.0098L24.724 17.1645Z" fill="white"/>
<path d="M10.8179 10.2543V8.09888H15.5996V8.8068H15.7373V7.96152H10.6855V10.3917H12.4595V10.2543H10.8179Z" fill="white"/>
<path d="M15.4361 12.4257L15.3672 12.4785C15.3566 12.6158 15.3884 12.7638 15.3408 12.8853C15.2931 12.9381 15.219 12.9328 15.1501 12.9275C15.1184 12.9011 15.1237 12.8747 15.1237 12.8377H14.9012L14.8748 13.0913C15.0124 13.0808 15.1342 13.1494 15.2296 13.0121C15.3037 13.0755 15.4361 13.123 15.4361 13.2287C15.4202 13.2657 15.3778 13.2709 15.3461 13.2868C15.3302 13.403 15.3249 13.5298 15.2878 13.6408C15.3355 13.6566 15.399 13.6513 15.452 13.6408C15.5685 13.1917 15.6161 12.7162 15.6585 12.2408C15.7856 12.2566 15.9338 12.2672 16.0556 12.3147C16.0715 12.3464 16.0239 12.3623 15.9974 12.3675H15.9709C15.865 12.806 15.7273 13.2234 15.5579 13.6302V13.6408L16.0291 13.6038C16.0397 13.403 15.9444 13.2287 15.8809 13.0543C15.9444 13.0543 15.9974 13.1124 16.045 13.1547C16.2463 13.3343 16.3575 13.5562 16.3151 13.8204C16.3045 13.8785 16.2674 13.9313 16.2092 13.9524C16.1668 13.963 16.1192 13.9524 16.0821 13.9313C16.0186 13.8732 16.0344 13.7834 16.0291 13.7041C15.8332 13.757 15.6426 13.8468 15.4414 13.9102C15.4255 13.9313 15.4255 13.9894 15.3725 13.963C15.3302 13.8838 15.3143 13.7887 15.2719 13.7094C15.2349 13.8151 15.1554 13.963 15.0283 13.9736C14.986 13.9736 14.9224 13.9894 14.9012 13.9419C14.8854 13.8838 14.9012 13.7834 14.8059 13.7781C14.7689 13.7623 14.7212 13.757 14.6947 13.72C14.8112 13.6936 14.986 13.794 15.0495 13.6355C15.1131 13.4928 15.0919 13.3343 15.1131 13.1758C15.0283 13.1653 14.9436 13.1547 14.8589 13.1653C14.8536 13.2234 14.843 13.2604 14.7848 13.2815C14.7371 13.2921 14.6841 13.3026 14.6312 13.2921C14.5835 13.234 14.6312 13.1653 14.6312 13.1072C14.6577 12.9592 14.6735 12.806 14.6841 12.6475L14.896 12.7532H15.1131C15.1342 12.6264 15.1078 12.5208 15.1184 12.4045H14.5729C14.5729 12.4045 14.5571 12.3253 14.5518 12.3094H15.1184L15.2243 12.1985C15.2984 12.2619 15.452 12.2989 15.4202 12.4151L15.4361 12.4257Z" fill="white"/>
<path d="M16.0551 14.2377C16.0128 14.2747 15.9439 14.2483 15.891 14.2642C15.9598 14.3751 16.0869 14.4121 16.1981 14.4649L16.4046 14.5177C16.4046 14.5759 16.3199 14.5811 16.3146 14.6445C16.2987 14.6815 16.304 14.7344 16.2881 14.7713C16.1716 14.7396 16.0763 14.6393 15.981 14.56L15.9492 14.5864H15.102C15.102 14.5864 15.0755 14.523 15.0808 14.5072H15.6897C15.748 14.4755 15.7903 14.3328 15.8698 14.4544C15.8751 14.4544 15.8751 14.4649 15.8857 14.4649C15.8486 14.4015 15.8009 14.354 15.7745 14.28H15.3455L15.2979 14.2061H15.7321L15.8592 14.074C15.9333 14.1162 16.0233 14.1532 16.0604 14.2377H16.0551Z" fill="white"/>
<path d="M15.2978 14.2906C15.2978 14.3434 15.2289 14.3328 15.1972 14.3592C15.0383 14.5389 14.8371 14.7026 14.62 14.7872L14.6094 14.7766C14.7788 14.5758 14.943 14.3804 15.0171 14.1426C15.1124 14.1849 15.2077 14.2272 15.2978 14.2906Z" fill="white"/>
<path d="M16.0656 14.8506C16.0762 14.8981 16.0126 14.8928 15.9809 14.8928C15.9544 14.8928 15.9279 14.8928 15.9067 14.8928C16.0285 15.0566 16.2297 15.12 16.4204 15.1517C16.4257 15.1992 16.3568 15.2204 16.3409 15.2574C16.3198 15.3049 16.3251 15.3577 16.2986 15.4053C16.2297 15.4158 16.1715 15.2574 16.1185 15.3789V15.7909C16.1609 15.7592 16.1927 15.6958 16.235 15.6483C16.3039 15.717 16.3992 15.7751 16.4415 15.8596L16.378 15.9019H14.657C14.6306 15.9019 14.6306 15.8332 14.6147 15.8174H14.9059V15.2521C14.8106 15.3102 14.7206 15.3894 14.6094 15.4106V15.3894C14.7894 15.1992 14.9377 14.9985 15.0118 14.7713C15.1071 14.8189 15.2077 14.8611 15.2925 14.9245C15.2819 14.9668 15.2289 14.9668 15.1972 14.9826C15.1389 15.0566 15.0701 15.12 14.9959 15.1887L15.1283 15.2362H15.8485L15.9544 15.157C15.8908 15.0777 15.8326 14.9932 15.7902 14.8981L15.769 14.8875H15.3507C15.3507 14.8875 15.3295 14.8347 15.3295 14.8136H15.7638L15.875 14.7026C15.9491 14.7343 16.0179 14.7766 16.0762 14.8453L16.0656 14.8506ZM15.2183 15.3102H15.1389V15.8332H15.2183V15.3102ZM15.5572 15.3102H15.4831C15.4831 15.3102 15.4831 15.363 15.4619 15.3841V15.8385H15.5519V15.3155L15.5572 15.3102ZM15.875 15.3102H15.8167L15.8273 15.3472C15.8167 15.3577 15.8008 15.3736 15.7902 15.3841V15.8385H15.875V15.3102Z" fill="white"/>
<path d="M12.5183 12.2091C12.5394 12.2513 12.4759 12.2619 12.4547 12.283C12.4335 12.8589 12.7671 13.4241 13.2967 13.683C13.2861 13.7464 13.2596 13.683 13.159 13.7411C13.0955 13.7781 13.0902 13.8996 13.0478 13.8996C12.9101 13.8574 12.8148 13.7094 12.7248 13.6038C12.5024 13.3026 12.4441 12.9328 12.3965 12.5577C12.3488 13.086 12.2058 13.6724 11.6445 13.8838C11.5704 13.9102 11.491 13.9472 11.4062 13.9313V13.9102C12.0735 13.5879 12.1476 12.8377 12.1211 12.1509C12.2535 12.1668 12.3912 12.1615 12.513 12.2091H12.5183Z" fill="white"/>
<path d="M11.8083 14.2906C11.9089 14.2906 12.1207 14.3223 12.1631 14.1796C12.2372 14.2219 12.3378 14.2694 12.3802 14.3593C12.3961 14.4121 12.3325 14.4174 12.3061 14.4385V14.9034C12.2796 14.9668 12.1896 14.9615 12.1313 14.9615C12.1048 14.9615 12.0784 14.951 12.0678 14.9245C12.0678 14.9034 12.0837 14.8611 12.0466 14.8611H11.7871L11.7765 14.8823V15.923C11.7553 15.9864 11.6706 15.9759 11.6124 15.9811C11.5806 15.9811 11.5488 15.9706 11.5488 15.9336V14.1691L11.7977 14.2853L11.8083 14.2906ZM12.0731 14.5177V14.3698H11.803V14.5177H12.0731ZM12.0731 14.766V14.6181H11.803V14.766H12.0731Z" fill="white"/>
<path d="M12.9951 14.2958L13.0692 14.1902C13.1434 14.2483 13.2493 14.28 13.2916 14.3804C13.2916 14.4279 13.2387 14.4332 13.2122 14.4649V15.8702C13.1857 15.96 13.0851 15.9864 13.0057 15.9917C12.9686 16.0075 12.9527 15.9758 12.9527 15.9441V15.8543C12.8945 15.8015 12.8151 15.7909 12.7462 15.7645C12.688 15.7962 12.6138 15.8226 12.545 15.8121C12.5079 15.7751 12.5185 15.717 12.5185 15.6694L12.2432 15.6589C12.2114 15.7275 12.2696 15.8543 12.1532 15.8649C12.1108 15.8702 12.0578 15.8966 12.0208 15.8649L12.0049 15.8332V14.9668C12.0843 14.9826 12.1637 15.0302 12.2379 15.0619H12.5238L12.5821 14.9879C12.545 14.9879 12.4921 14.9774 12.4603 14.9457V14.2008L12.7039 14.3064H12.9951V14.2958ZM12.9739 14.5389V14.3909H12.7039V14.5389H12.9739ZM12.9739 14.7872V14.6392H12.7039V14.7872H12.9739ZM12.5185 15.3049V15.157H12.2485V15.3049H12.5185ZM12.5185 15.5532V15.4053H12.2485V15.5532H12.5185ZM12.6509 14.9615C12.6509 14.9615 12.6986 14.9774 12.7515 15.0249C12.8839 15.1358 12.7621 15.1834 12.7621 15.1834V15.7011C12.7621 15.7011 12.8362 15.7064 12.8998 15.717C12.9686 15.7275 12.9845 15.68 12.9845 15.68V14.877H12.6986C12.7145 14.9087 12.6456 14.9562 12.6456 14.9562L12.6509 14.9615Z" fill="white"/>
<path d="M17.3634 8.80679V11.1102H12.46V10.3917H15.7378V8.80679H17.3634Z" fill="white"/>
<path d="M12.46 8.80679H15.6054V10.2596H12.46V8.80679ZM15.0811 9.29283H14.0697V9.00227H13.9373V9.29283H12.9895V9.42491H13.9109C13.7467 9.81585 12.9948 9.85811 12.9948 9.85811L13.0054 9.99019C13.8314 9.93208 14.0009 9.52528 14.0009 9.52528C14.2339 9.95849 15.0388 9.99547 15.0388 9.99547L15.0494 9.8634C14.3716 9.79472 14.1598 9.56226 14.0962 9.42491H15.0758V9.29283H15.0811Z" fill="white"/>
<path d="M6.64062 15.9811C6.86303 16.1925 6.97952 16.6362 6.98482 16.6415L7.1172 16.6098C7.1172 16.6098 6.99011 16.1185 6.73594 15.886L6.64062 15.9864V15.9811Z" fill="white"/>
<path d="M7.21233 15.3419C7.21233 15.3419 7.38178 15.8385 7.73656 16.1925L7.83188 16.0921C7.50357 15.7645 7.34471 15.2996 7.33941 15.2943L7.20703 15.3366L7.21233 15.3419Z" fill="white"/>
<path d="M6.4815 11.48C6.15319 11.4959 5.86195 11.6279 5.66073 11.8657C5.14179 12.4627 5.44362 13.0596 5.67661 13.2921C5.84606 13.4611 6.3703 13.6936 6.82569 13.3079C6.96337 13.1917 7.0428 13.0332 7.0481 12.8536C7.05339 12.6845 6.99514 12.5155 6.88394 12.4045C6.79392 12.3147 6.63506 12.2619 6.49738 12.283C6.38089 12.2989 6.28557 12.3623 6.22732 12.4679L6.34912 12.5366C6.38618 12.4679 6.44443 12.431 6.51857 12.4204C6.62447 12.4045 6.73567 12.4521 6.78863 12.5049C6.87335 12.5894 6.92101 12.7162 6.91571 12.8483C6.91042 12.9857 6.84687 13.1125 6.74097 13.2023C6.31734 13.5615 5.85136 13.2657 5.77722 13.1917C5.576 12.991 5.31124 12.4732 5.76663 11.9555C5.94667 11.7494 6.19555 11.6332 6.48679 11.6174C6.91042 11.6015 7.36052 11.8023 7.76296 12.1827C8.35603 12.7532 8.35603 13.6883 8.35603 14.2483C8.35603 14.8136 8.03302 16.3879 7.03751 16.557C6.79922 16.5993 6.5874 16.557 6.41796 16.4355C6.22203 16.2928 6.12671 16.0815 6.10553 15.923C6.06317 15.6377 6.15849 15.3842 6.365 15.2204C6.54504 15.083 6.77804 15.0355 6.94749 15.1042C7.12753 15.1781 7.25461 15.3419 7.2705 15.5268C7.28109 15.6694 7.21755 15.791 7.09575 15.8649C7.00044 15.923 6.90512 15.9442 6.8204 15.9177C6.75156 15.8966 6.69331 15.8438 6.66154 15.7751L6.53445 15.8332C6.58211 15.9389 6.67213 16.0181 6.77804 16.0498C6.86276 16.0762 7.00044 16.0868 7.16459 15.9864C7.33404 15.886 7.41877 15.717 7.40288 15.5215C7.38699 15.2891 7.22284 15.0777 6.99514 14.9827C6.77804 14.8928 6.49738 14.9457 6.27498 15.1147C6.0261 15.3102 5.9149 15.6113 5.96256 15.9494C5.99963 16.1872 6.1373 16.4144 6.33323 16.5517C6.53445 16.6944 6.78333 16.7472 7.05869 16.6996C8.14952 16.5147 8.49371 14.877 8.49371 14.3011C8.49371 13.6777 8.49371 12.7057 7.85828 12.0928C7.43465 11.6808 6.94219 11.4694 6.4815 11.4853V11.48Z" fill="white"/>
<path d="M0 14C0 21.7185 6.29611 28 14.0325 28C21.769 28 28.0651 21.7185 28.0651 14C28.0651 6.28151 21.769 0 14.0325 0C6.29611 0 0 6.28151 0 14ZM0.137678 14C0.137678 6.35547 6.37025 0.137358 14.0325 0.137358C21.6948 0.137358 27.9274 6.35547 27.9274 14C27.9274 21.6445 21.6948 27.8626 14.0325 27.8626C6.37025 27.8626 0.137678 21.6445 0.137678 14Z" fill="white"/>
<path d="M3.46289 14C3.46289 19.8166 8.20218 24.5449 14.0323 24.5449C19.8624 24.5449 24.6017 19.8166 24.6017 14C24.6017 8.18341 19.8571 3.45511 14.0323 3.45511C8.20748 3.45511 3.46289 8.18341 3.46289 14ZM3.60057 14C3.60057 8.26266 8.28161 3.59247 14.0323 3.59247C19.783 3.59247 24.4641 8.26266 24.4641 14C24.4641 19.7374 19.783 24.4076 14.0323 24.4076C8.28161 24.4076 3.60057 19.7374 3.60057 14Z" fill="white"/>
<path d="M8.11286 7.02113C7.69982 7.22188 7.41388 7.62867 7.28679 8.19924L7.21266 8.57433C7.13323 9.02867 7.02732 9.58867 6.75726 10.1857C6.51368 10.714 6.23303 11.0838 5.98415 11.4113L5.66113 11.8551L5.77763 11.9291L6.09535 11.4958C6.34952 11.163 6.63547 10.7879 6.88435 10.2438C7.165 9.63094 7.2709 9.06037 7.35033 8.60075L7.41917 8.23094C7.54096 7.69735 7.78984 7.32754 8.17111 7.14792C8.46764 7.00528 8.87009 7.01056 9.1931 7.16905C9.47375 7.30641 9.65908 7.53358 9.71733 7.81886C9.79676 8.19396 9.69615 8.60075 9.46316 8.85433C9.26723 9.06566 8.99717 9.15547 8.67416 9.11849C8.21876 9.06566 8.07049 8.74867 8.07579 8.47924C8.08638 8.20452 8.25583 7.90339 8.56296 7.88754C8.77477 7.87698 8.88068 7.97735 8.93363 8.06188C9.00776 8.18339 9.00776 8.35245 8.94422 8.46339L9.06072 8.53735C9.15603 8.38415 9.15074 8.15698 9.05542 7.9932C8.95481 7.82415 8.78006 7.73962 8.55766 7.75547C8.17111 7.7766 7.9487 8.14641 7.93811 8.48452C7.92752 8.80679 8.11286 9.20301 8.65827 9.26641C9.12426 9.32452 9.41021 9.12905 9.56377 8.95999C9.82853 8.67471 9.93974 8.22037 9.85501 7.80301C9.78617 7.47547 9.57436 7.21132 9.25664 7.05811C8.89656 6.88377 8.45176 6.8732 8.11286 7.03698V7.02113Z" fill="white"/>
<path d="M11.6125 4.42718L11.3795 4.64907C11.1836 4.86567 10.8606 5.2302 10.2781 5.68454C9.6056 6.20756 8.8166 6.63548 8.34003 6.89435L8.01172 7.07926L8.08585 7.19548L8.40887 7.01586C8.88544 6.75699 9.68503 6.3185 10.3628 5.79548C10.9559 5.33586 11.2842 4.96605 11.4854 4.74416L11.6761 4.55397C11.7767 4.50114 12.1156 4.42718 12.4439 4.68077C12.608 4.80756 12.7034 4.98718 12.7034 5.16152C12.7034 5.31473 12.6186 5.4468 12.4757 5.5419C12.0997 5.79548 11.6496 6.20227 11.0512 6.77284C10.5641 7.23775 10.114 7.91397 9.78035 8.40529L9.58442 8.69058L9.70092 8.76982L9.89685 8.47926C10.2252 7.98793 10.6753 7.31699 11.1465 6.86794C11.7396 6.30265 12.1844 5.90114 12.5551 5.64756C12.7351 5.52605 12.8357 5.35171 12.841 5.15624C12.8463 4.93963 12.7298 4.71775 12.5286 4.56454C12.1579 4.27926 11.7661 4.34794 11.6125 4.42718Z" fill="white"/>
<path d="M8.27092 7.83473L8.33446 7.95624C8.36624 7.94039 9.0811 7.54945 9.36705 7.21133L9.26114 7.12152C8.99108 7.4385 8.27622 7.82945 8.26562 7.83473H8.27092Z" fill="white"/>
<path d="M8.93359 8.46868L9.06068 8.52151C9.06068 8.52151 9.19836 8.20981 9.78614 7.76603L9.70141 7.65509C9.08186 8.12528 8.93889 8.45283 8.93359 8.46868Z" fill="white"/>
<path d="M6.26953 12.4045L6.38073 12.4891C6.38073 12.4891 6.73552 12.0136 6.84672 11.6226L6.71434 11.5857C6.61373 11.9555 6.27483 12.4045 6.26953 12.4098V12.4045Z" fill="white"/>
<path d="M6.91602 12.9117L7.05369 12.9328C7.05369 12.9328 7.13312 12.4309 7.58322 11.9713L7.48261 11.8762C7.00074 12.3728 6.92131 12.8906 6.91602 12.9117Z" fill="white"/>
<path d="M18.6761 7.06339C18.3584 7.22188 18.1466 7.48604 18.0777 7.8083C17.993 8.22566 18.1042 8.68 18.369 8.96528C18.5278 9.13434 18.8138 9.32981 19.2745 9.2717C19.8199 9.2083 20.0052 8.80679 19.9946 8.48981C19.984 8.1517 19.7616 7.78717 19.3751 7.76075C19.158 7.75019 18.9779 7.83472 18.8773 7.99849C18.7767 8.16226 18.7767 8.38943 18.872 8.54264L18.9885 8.46868C18.9197 8.35773 18.925 8.18868 18.9991 8.06717C19.0521 7.98264 19.158 7.88226 19.3698 7.89283C19.6769 7.90868 19.8464 8.20981 19.8569 8.48453C19.8675 8.75924 19.714 9.07094 19.2586 9.12377C18.9356 9.16075 18.6655 9.07094 18.4696 8.85962C18.2366 8.60604 18.136 8.19924 18.2154 7.82415C18.2737 7.53887 18.459 7.3117 18.7396 7.17434C19.0627 7.01585 19.4598 7.01056 19.7616 7.15321C20.1429 7.33811 20.3918 7.70264 20.5136 8.23622L20.5877 8.60604C20.6724 9.06566 20.773 9.63622 21.0537 10.2491C21.3026 10.7985 21.6468 11.2475 21.9168 11.6121L22.2451 12.0664L22.3616 11.9925L22.028 11.5275C21.7474 11.1525 21.4244 10.7245 21.1808 10.1909C20.9054 9.59396 20.8048 9.03396 20.7254 8.5849L20.6512 8.20981C20.5242 7.63924 20.2382 7.23245 19.8252 7.0317C19.4916 6.86792 19.0415 6.87849 18.6814 7.05283L18.6761 7.06339Z" fill="white"/>
<path d="M15.4044 4.58565C15.2032 4.73886 15.0867 4.96074 15.092 5.17735C15.0973 5.37282 15.1979 5.54716 15.3779 5.66867C15.7433 5.91697 16.1881 6.31848 16.7865 6.88905C17.2101 7.29584 17.6072 7.8664 17.925 8.32603L18.2268 8.75395L18.338 8.66942L18.0362 8.2415C17.7184 7.77659 17.316 7.19546 16.8818 6.7781C16.2781 6.20754 15.8333 5.80074 15.4573 5.54716C15.3144 5.45206 15.2349 5.31999 15.2296 5.16678C15.2296 4.99244 15.3197 4.81282 15.4891 4.68603C15.8174 4.43244 16.1563 4.5064 16.2569 4.55923L16.4423 4.74942C16.6382 4.97131 16.9665 5.34112 17.5649 5.80603C18.248 6.33433 19.0476 6.77282 19.5241 7.03169L19.8366 7.20603L19.9107 7.0898L19.5877 6.91018C19.1111 6.65131 18.3221 6.2181 17.6443 5.69508C17.0565 5.24074 16.7335 4.87622 16.5376 4.65961L16.3099 4.43773C16.1563 4.36376 15.7698 4.2898 15.3938 4.58037L15.4044 4.58565Z" fill="white"/>
<path d="M18.56 7.22717C18.8459 7.56528 19.4867 7.91396 19.5131 7.92981L19.5767 7.8083C19.5767 7.8083 18.9307 7.45434 18.6606 7.13736L18.5547 7.22717H18.56Z" fill="white"/>
<path d="M18.1416 7.78718C18.7294 8.23096 18.8671 8.54265 18.8671 8.54265L18.9941 8.48982C18.9941 8.48982 18.8459 8.14643 18.2263 7.67624L18.1416 7.78718Z" fill="white"/>
<path d="M20.0749 12.1034C19.4395 12.7162 19.4395 13.6883 19.4395 14.2694C19.4395 14.8876 19.7784 16.5306 20.8745 16.7155C21.1498 16.763 21.3987 16.7155 21.5999 16.5676C21.7959 16.4302 21.9335 16.203 21.9706 15.9653C22.0236 15.6325 21.9071 15.326 21.6635 15.1306C21.4464 14.9562 21.1604 14.9034 20.9433 14.9932C20.7156 15.0883 20.5515 15.2996 20.5356 15.5321C20.5197 15.7276 20.6097 15.8966 20.7739 15.997C20.938 16.0974 21.0757 16.0868 21.1604 16.0604C21.2663 16.0287 21.3564 15.9494 21.404 15.8438L21.2769 15.7857C21.2452 15.8543 21.1869 15.9072 21.1181 15.9283C21.0333 15.9547 20.938 15.9336 20.8427 15.8755C20.7209 15.8015 20.6574 15.68 20.668 15.5374C20.6838 15.3577 20.8109 15.194 20.991 15.1147C21.1604 15.046 21.3934 15.0883 21.5735 15.2309C21.78 15.3947 21.8753 15.6483 21.8329 15.9336C21.8117 16.0868 21.7164 16.3034 21.5205 16.446C21.3511 16.5676 21.1392 16.6098 20.901 16.5676C19.9054 16.3985 19.5824 14.8294 19.5824 14.3064C19.5824 13.7042 19.5824 12.7691 20.1755 12.1985C20.5726 11.8128 21.028 11.6121 21.4464 11.6332C21.7376 11.6438 21.9865 11.76 22.1718 11.966C22.6272 12.4838 22.3625 13.0015 22.1612 13.2023C22.0871 13.2762 21.6264 13.5721 21.1975 13.2128C21.0916 13.123 21.028 12.9962 21.0227 12.8589C21.0227 12.7268 21.0651 12.6 21.1498 12.5155C21.2081 12.4574 21.3299 12.4045 21.4358 12.4257C21.5311 12.4468 21.6052 12.526 21.6529 12.6634L21.7853 12.6159C21.7058 12.3887 21.5682 12.3147 21.4676 12.2936C21.3087 12.2566 21.1392 12.3359 21.0545 12.4204C20.9433 12.5313 20.8798 12.7004 20.8904 12.8694C20.8957 13.0438 20.9751 13.2076 21.1128 13.3238C21.5788 13.72 22.1189 13.4506 22.2618 13.3079C22.4948 13.0755 22.7967 12.4785 22.2777 11.8815C22.0765 11.6491 21.78 11.5117 21.457 11.5011C20.9963 11.48 20.5091 11.6966 20.0802 12.1034H20.0749Z" fill="white"/>
<path d="M21.0645 11.6121C21.1757 12.0083 21.5093 12.4574 21.5198 12.4785L21.6311 12.394C21.6311 12.394 21.2974 11.9449 21.1968 11.5751L21.0645 11.6121Z" fill="white"/>
<path d="M20.3496 11.9872C20.7997 12.4468 20.8791 12.9434 20.8791 12.9487L21.0168 12.9276C21.0168 12.9276 20.9321 12.3887 20.4502 11.8921L20.3496 11.9872Z" fill="white"/>
<path d="M20.8154 16.6257L20.9478 16.6574C20.9478 16.6574 21.0643 16.2083 21.292 15.997L21.1967 15.8966C20.9478 16.1343 20.8207 16.6045 20.8154 16.6204V16.6257Z" fill="white"/>
<path d="M20.101 16.1132L20.1963 16.2083C20.5511 15.8543 20.7153 15.3789 20.7205 15.3577L20.5882 15.3155C20.5882 15.3155 20.4293 15.7856 20.0957 16.1132H20.101Z" fill="white"/>
<path d="M12.3594 5.74792C12.3859 5.76377 13.0795 6.15471 13.895 6.15471C15.0335 6.15471 15.5207 5.75848 15.5419 5.73735L15.4518 5.63169C15.4518 5.63169 14.9805 6.01207 13.895 6.01207C13.1166 6.01207 12.4335 5.62641 12.4282 5.62112L12.3594 5.74263V5.74792Z" fill="white"/>
<path d="M20.7683 18.3902L20.7313 18.5434C20.4559 19.7743 19.614 23.5253 14.0327 23.5253C8.45148 23.5253 7.48774 19.6951 7.1912 18.4377L7.14354 18.2528C6.89466 17.2966 6.27511 16.3034 6.26982 16.2928L6.15332 16.3668C6.15332 16.3668 6.76758 17.3494 7.01116 18.2845L7.05352 18.4694C7.36065 19.7532 8.29792 23.6626 14.0327 23.6626C17.8083 23.6626 20.1064 21.9509 20.8637 18.5751L20.8954 18.4219C21.0967 17.5819 21.3667 17.0589 21.8539 16.2664L21.7374 16.1924C21.2396 16.9955 20.9696 17.529 20.7631 18.3902H20.7683Z" fill="white"/>
<path d="M17.1935 11.6702H14.5141C14.477 11.6808 14.0958 11.9819 13.9952 12.0611C13.921 12.0083 13.5027 11.686 13.5027 11.686L10.5797 11.6702L9.17116 13.2023L9.15527 17.883H12.9149C12.952 17.92 13.4021 18.3743 13.4021 18.3743H14.5353C14.5353 18.3743 14.9324 17.9781 14.9695 17.9411H18.5862V13.0913C18.565 13.0438 17.2465 11.6913 17.2465 11.6913L17.2253 11.6702H17.1988H17.1935ZM14.0375 12.2038L14.5565 11.7917C14.5565 11.7917 17.1035 11.8076 17.1618 11.8076C17.1988 11.8498 18.4644 13.1389 18.4644 13.1389C18.4644 13.1389 18.4485 17.6717 18.4432 17.8038H14.9113C14.9113 17.8038 14.5141 18.2 14.477 18.237H13.4551C13.418 18.2 12.9679 17.7457 12.9679 17.7457H9.28766V13.2498C9.28766 13.2498 10.5268 11.9291 10.638 11.8076H13.4551L13.9475 12.2038L13.9899 12.2355L14.0322 12.2038H14.0375Z" fill="white"/>
<path d="M10.543 11.7441V16.3985H13.5454L13.9637 16.7894L14.0114 16.8317L14.525 16.3773C14.525 16.3932 17.1992 16.3985 17.1992 16.3985H17.268L17.2839 11.7494H17.1462C17.1462 11.7494 17.1303 16.1238 17.1303 16.2611C16.9979 16.2611 14.4774 16.2611 14.4774 16.2611C14.4403 16.277 14.112 16.557 14.0114 16.6521C13.9373 16.5887 13.5931 16.2823 13.5931 16.2823C13.5931 16.2823 10.8077 16.2664 10.6806 16.2664V11.7494H10.543V11.7441Z" fill="white"/>
<path d="M17.8082 12.4521C17.8082 12.4521 17.8082 16.8 17.8082 16.9321H14.6893C14.6416 16.9532 14.1756 17.3917 14.1756 17.3917C14.1756 17.3917 13.7679 17.3759 13.7202 17.3759C13.6831 17.3389 13.2913 16.9479 13.2913 16.9479H10.0029C10.0029 16.8159 10.0029 12.4732 10.0029 12.4732H9.86523V17.0853H13.2383C13.2754 17.1223 13.6673 17.5132 13.6673 17.5132H14.2286C14.2762 17.4921 14.7422 17.0536 14.7422 17.0536L17.9512 17.0747V12.4574H17.8082V12.4521Z" fill="white"/>
<path d="M10.2148 12.1087V16.7683H13.3761C13.4132 16.8053 13.8051 17.2121 13.8051 17.2121H14.1704C14.1704 17.2121 14.5358 16.8 14.5729 16.7577C14.6311 16.7577 17.6441 16.7472 17.6441 16.7472V12.1404H17.5065V16.6098C17.3741 16.6098 14.5093 16.6204 14.5093 16.6204C14.5093 16.6204 14.144 17.0324 14.1069 17.0747H13.8633C13.8262 17.0377 13.4344 16.6309 13.4344 16.6309H10.3578C10.3578 16.4989 10.3525 12.1087 10.3525 12.1087H10.2148Z" fill="white"/>
<path d="M18.1467 12.8113V17.3706H14.7418C14.7418 17.3706 14.3976 17.714 14.3605 17.7509H13.5874C13.5503 17.7034 13.2114 17.2913 13.2114 17.2913C13.2114 17.2913 9.7642 17.2913 9.63182 17.2913C9.63182 17.1592 9.63182 12.8853 9.63182 12.8853H9.49414V17.4287C9.49414 17.4287 13.0844 17.4287 13.1479 17.4287C13.185 17.4762 13.5239 17.8883 13.5239 17.8883H14.4241C14.4241 17.8883 14.7683 17.5449 14.8053 17.5079H18.2896V12.8113H18.152H18.1467Z" fill="white"/>
<path d="M9.17188 17.7721L9.27778 17.8672L10.6651 16.3721L10.5645 16.277L9.17188 17.7721Z" fill="white"/>
<path d="M17.252 16.2832L17.1475 16.3726L18.4437 17.8804L18.5482 17.7909L17.252 16.2832Z" fill="white"/>
<path d="M9.44663 2.68377L8.6894 1.43698L8.27637 1.66415L9.03359 2.90566L9.44663 2.68377Z" fill="white"/>
<path d="M7.50879 4.00452L9.53159 2.83698L10.1511 3.79848L9.73281 4.04679L9.2986 3.38113L7.70472 4.30565L7.50879 4.00452Z" fill="white"/>
<path d="M7.13791 3.57131C6.75665 3.38112 6.65074 2.92678 6.89433 2.55697C7.1432 2.18716 7.65155 2.03923 8.03281 2.22942C8.41408 2.41961 8.51998 2.87395 8.2764 3.24376C8.02752 3.61357 7.51917 3.7615 7.13791 3.57131ZM7.96927 2.87923C7.98516 2.68905 7.821 2.54112 7.60919 2.55697C7.39738 2.56754 7.21204 2.73131 7.19616 2.91621C7.18027 3.1064 7.34443 3.24905 7.55624 3.23848C7.76805 3.22791 7.95339 3.06414 7.96927 2.87923Z" fill="white"/>
</g>
<defs>
<clipPath id="clip0_684_9251">
<rect width="137" height="28" fill="white"/>
</clipPath>
</defs>
</svg>
