<svg width="23" height="34" viewBox="0 0 23 34" fill="none" xmlns="http://www.w3.org/2000/svg">
<path d="M8.50464 10.9434L13.5223 12.2462L8.02151 33.4317L6.30886 29.714L3.00389 32.1289L8.50464 10.9434Z" fill="url(#paint0_linear_3982_26990)"/>
<path d="M9.91479 12.248L14.9323 10.9448L20.4348 32.1299L17.1296 29.7152L15.4173 33.4331L9.91479 12.248Z" fill="url(#paint1_linear_3982_26990)"/>
<path d="M10.6041 1.10829C11.0651 0.537898 11.9348 0.537897 12.3958 1.10829L13.5318 2.51354C13.8183 2.86794 14.2867 3.02015 14.7268 2.90183L16.4718 2.43265C17.1801 2.24221 17.8836 2.75336 17.9214 3.48584L18.0144 5.29041C18.0379 5.7455 18.3274 6.144 18.753 6.30694L20.4405 6.95305C21.1254 7.2153 21.3942 8.04237 20.9942 8.65714L20.0087 10.1717C19.7602 10.5537 19.7602 11.0463 20.0087 11.4283L20.9942 12.9429C21.3942 13.5576 21.1254 14.3847 20.4405 14.647L18.753 15.2931C18.3274 15.456 18.0379 15.8545 18.0144 16.3096L17.9214 18.1142C17.8836 18.8466 17.1801 19.3578 16.4718 19.1674L14.7268 18.6982C14.2867 18.5799 13.8183 18.7321 13.5318 19.0865L12.3958 20.4917C11.9348 21.0621 11.0651 21.0621 10.6041 20.4917L9.46811 19.0865C9.18163 18.7321 8.71317 18.5799 8.27309 18.6982L6.5281 19.1674C5.81981 19.3578 5.11627 18.8466 5.07851 18.1142L4.9855 16.3096C4.96204 15.8545 4.67251 15.456 4.24694 15.2931L2.55943 14.647C1.87448 14.3847 1.60575 13.5576 2.00574 12.9429L2.99119 11.4283C3.23971 11.0463 3.23971 10.5537 2.99119 10.1717L2.00574 8.65715C1.60575 8.04237 1.87448 7.2153 2.55943 6.95305L4.24694 6.30694C4.67251 6.144 4.96204 5.7455 4.9855 5.2904L5.07851 3.48583C5.11627 2.75336 5.81981 2.24221 6.5281 2.43265L8.27309 2.90183C8.71317 3.02015 9.18163 2.86794 9.46811 2.51354L10.6041 1.10829Z" fill="url(#paint2_linear_3982_26990)"/>
<circle cx="11.4974" cy="10.8014" r="6.192" fill="white"/>
<path d="M13.3725 9.36865C13.3725 9.84673 13.2515 10.1174 12.8944 10.5264L11.7597 11.8282H13.4416V12.6576H10.4234V11.8915L12.0131 10.0598C12.232 9.80641 12.3127 9.62209 12.3127 9.36289C12.3127 9.01153 12.1687 8.80993 11.8634 8.80993C11.5639 8.80993 11.4141 9.00577 11.4141 9.36289V9.56449H10.3543V9.36865C10.3543 8.61409 10.8899 7.98049 11.8634 7.98049C12.8483 7.98049 13.3725 8.61409 13.3725 9.36865Z" fill="#0276FE"/>
<defs>
<linearGradient id="paint0_linear_3982_26990" x1="11.0135" y1="11.5948" x2="5.5127" y2="32.7803" gradientUnits="userSpaceOnUse">
<stop stop-color="#0276FE"/>
<stop offset="1" stop-color="#0D1B75"/>
</linearGradient>
<linearGradient id="paint1_linear_3982_26990" x1="12.4236" y1="11.5964" x2="17.9261" y2="32.7815" gradientUnits="userSpaceOnUse">
<stop stop-color="#0276FE"/>
<stop offset="1" stop-color="#0D1B75"/>
</linearGradient>
<linearGradient id="paint2_linear_3982_26990" x1="9.87517" y1="1.70526" x2="18.4132" y2="8.03456" gradientUnits="userSpaceOnUse">
<stop stop-color="#6AEBFF"/>
<stop offset="0.840242" stop-color="#0281FE"/>
</linearGradient>
</defs>
</svg>
