<svg width="31" height="45" viewBox="0 0 31 45" fill="none" xmlns="http://www.w3.org/2000/svg">
<path d="M11.467 14.7305L18.2208 16.4841L10.8167 45L8.51152 39.9959L4.06302 43.2464L11.467 14.7305Z" fill="url(#paint0_linear_3982_27004)"/>
<path d="M13.3655 16.4844L20.1191 14.7302L27.5254 43.2455L23.0767 39.9954L20.7719 44.9997L13.3655 16.4844Z" fill="url(#paint1_linear_3982_27004)"/>
<path d="M14.2941 1.49178C14.9147 0.724022 16.0852 0.724023 16.7058 1.49178L18.2348 3.38325C18.6204 3.86027 19.251 4.06515 19.8433 3.90589L22.192 3.27437C23.1454 3.01804 24.0924 3.70605 24.1432 4.69197L24.2684 7.12095C24.3 7.73351 24.6897 8.26989 25.2625 8.48921L27.5339 9.35888C28.4558 9.71188 28.8176 10.8251 28.2792 11.6526L26.9527 13.6913C26.6182 14.2054 26.6182 14.8684 26.9527 15.3825L28.2792 17.4212C28.8176 18.2487 28.4558 19.362 27.5339 19.715L25.2625 20.5846C24.6897 20.8039 24.3 21.3403 24.2684 21.9529L24.1432 24.3819C24.0924 25.3678 23.1454 26.0558 22.192 25.7995L19.8433 25.1679C19.251 25.0087 18.6204 25.2136 18.2348 25.6906L16.7058 27.5821C16.0852 28.3498 14.9147 28.3498 14.2941 27.5821L12.7651 25.6906C12.3795 25.2136 11.7489 25.0087 11.1566 25.1679L8.80784 25.7995C7.85448 26.0558 6.9075 25.3678 6.85668 24.3819L6.73148 21.9529C6.69991 21.3403 6.31021 20.8039 5.73738 20.5846L3.46599 19.715C2.54404 19.362 2.18233 18.2487 2.72072 17.4212L4.04714 15.3825C4.38165 14.8684 4.38165 14.2054 4.04714 13.6913L2.72072 11.6526C2.18233 10.8251 2.54404 9.71188 3.46599 9.35888L5.73738 8.48921C6.3102 8.26989 6.69991 7.73351 6.73148 7.12095L6.85668 4.69197C6.9075 3.70605 7.85447 3.01804 8.80784 3.27437L11.1566 3.90589C11.7489 4.06515 12.3795 3.86027 12.7651 3.38325L14.2941 1.49178Z" fill="url(#paint2_linear_3982_27004)"/>
<ellipse cx="15.5007" cy="14.5357" rx="8.33444" ry="8.3345" fill="white"/>
<path d="M16.6729 17.1029H15.2386V12.2185L13.9749 12.7845V11.5983L15.4479 10.916H16.6729V17.1029Z" fill="#0276FE"/>
<defs>
<linearGradient id="paint0_linear_3982_27004" x1="14.8439" y1="15.6073" x2="7.43978" y2="44.1232" gradientUnits="userSpaceOnUse">
<stop stop-color="#0276FE"/>
<stop offset="1" stop-color="#0D1B75"/>
</linearGradient>
<linearGradient id="paint1_linear_3982_27004" x1="16.7423" y1="15.6073" x2="24.1487" y2="44.1226" gradientUnits="userSpaceOnUse">
<stop stop-color="#0276FE"/>
<stop offset="1" stop-color="#0D1B75"/>
</linearGradient>
<linearGradient id="paint2_linear_3982_27004" x1="13.313" y1="2.2953" x2="24.8052" y2="10.8145" gradientUnits="userSpaceOnUse">
<stop stop-color="#6AEBFF"/>
<stop offset="0.840242" stop-color="#0281FE"/>
</linearGradient>
</defs>
</svg>
