<svg width="15" height="23" viewBox="0 0 15 23" fill="none" xmlns="http://www.w3.org/2000/svg">
<path d="M5.70239 7.29492L9.04747 8.16345L5.38031 22.2869L4.23854 19.8085L2.03522 21.4184L5.70239 7.29492Z" fill="url(#paint0_linear_3982_26976)"/>
<path d="M6.64111 8.16333L9.98612 7.29453L13.6545 21.4177L11.451 19.8079L10.3094 22.2865L6.64111 8.16333Z" fill="url(#paint1_linear_3982_26976)"/>
<path d="M7.10201 0.738838C7.4094 0.358586 7.98914 0.358586 8.29652 0.738838L9.05383 1.67567C9.24482 1.91193 9.55712 2.0134 9.8505 1.93452L11.0138 1.62174C11.486 1.49478 11.9551 1.83555 11.9802 2.32386L12.0422 3.52687C12.0579 3.83027 12.2509 4.09594 12.5346 4.20456L13.6596 4.63529C14.1162 4.81012 14.2954 5.3615 14.0287 5.77135L13.3718 6.78105C13.2061 7.0357 13.2061 7.36408 13.3718 7.61873L14.0287 8.62842C14.2954 9.03827 14.1162 9.58965 13.6596 9.76448L12.5346 10.1952C12.2509 10.3038 12.0579 10.5695 12.0422 10.8729L11.9802 12.0759C11.9551 12.5642 11.486 12.905 11.0138 12.778L9.8505 12.4653C9.55712 12.3864 9.24482 12.4878 9.05383 12.7241L8.29652 13.6609C7.98914 14.0412 7.4094 14.0412 7.10201 13.6609L6.3447 12.7241C6.15372 12.4878 5.84141 12.3864 5.54804 12.4653L4.38469 12.778C3.9125 12.905 3.44348 12.5642 3.41831 12.0759L3.3563 10.8729C3.34066 10.5695 3.14764 10.3038 2.86393 10.1952L1.73893 9.76448C1.28229 9.58965 1.10314 9.03827 1.3698 8.62842L2.02675 7.61873C2.19244 7.36408 2.19244 7.0357 2.02675 6.78105L1.3698 5.77135C1.10314 5.3615 1.28229 4.81012 1.73893 4.63529L2.86393 4.20456C3.14764 4.09594 3.34066 3.83027 3.3563 3.52687L3.41831 2.32386C3.44348 1.83555 3.9125 1.49478 4.38469 1.62174L5.54804 1.93452C5.84141 2.0134 6.15372 1.91193 6.3447 1.67567L7.10201 0.738838Z" fill="url(#paint2_linear_3982_26976)"/>
<ellipse cx="7.6999" cy="7.20069" rx="4.128" ry="4.12794" fill="white"/>
<path d="M7.6884 8.20304C7.91112 8.20304 8.03784 8.06096 8.03784 7.80369C8.03784 7.48113 7.90728 7.36209 7.60776 7.36209H7.37352V6.81681H7.60776C7.8228 6.81681 7.96488 6.71697 7.96488 6.45586C7.96488 6.25234 7.8612 6.13714 7.6884 6.13714C7.5156 6.13714 7.41192 6.25234 7.41192 6.45586V6.50962H6.72841V6.42514C6.72841 5.92594 7.08168 5.58418 7.6884 5.58418C8.29127 5.58418 8.65223 5.92978 8.65223 6.41362C8.65223 6.78225 8.46407 6.98961 8.18375 7.07409C8.54855 7.16241 8.74439 7.43889 8.74439 7.83441C8.74439 8.3912 8.32199 8.756 7.6884 8.756C7.0548 8.756 6.63625 8.3912 6.63625 7.83441V7.73841H7.33896V7.80369C7.33896 8.06096 7.46568 8.20304 7.6884 8.20304Z" fill="#0276FE"/>
<defs>
<linearGradient id="paint0_linear_3982_26976" x1="7.37493" y1="7.72919" x2="3.70787" y2="21.8527" gradientUnits="userSpaceOnUse">
<stop stop-color="#0276FE"/>
<stop offset="1" stop-color="#0D1B75"/>
</linearGradient>
<linearGradient id="paint1_linear_3982_26976" x1="8.31362" y1="7.72893" x2="11.9818" y2="21.8521" gradientUnits="userSpaceOnUse">
<stop stop-color="#0276FE"/>
<stop offset="1" stop-color="#0D1B75"/>
</linearGradient>
<linearGradient id="paint2_linear_3982_26976" x1="6.61608" y1="1.13682" x2="12.308" y2="5.35637" gradientUnits="userSpaceOnUse">
<stop stop-color="#6AEBFF"/>
<stop offset="0.840242" stop-color="#0281FE"/>
</linearGradient>
</defs>
</svg>
