<svg width="16" height="16" viewBox="0 0 16 16" fill="none" xmlns="http://www.w3.org/2000/svg">
<g id="error" opacity="0.5">
<mask id="mask0_1056_2373" style="mask-type:alpha" maskUnits="userSpaceOnUse" x="0" y="0" width="16" height="16">
<rect id="Bounding box" y="0.320068" width="15.36" height="15.36" fill="#D9D9D9"/>
</mask>
<g mask="url(#mask0_1056_2373)">
<path id="error_2" d="M7.67969 11.2C7.86103 11.2 8.01303 11.1387 8.13569 11.016C8.25836 10.8934 8.31969 10.7414 8.31969 10.56C8.31969 10.3787 8.25836 10.2267 8.13569 10.104C8.01303 9.98137 7.86103 9.92004 7.67969 9.92004C7.49836 9.92004 7.34636 9.98137 7.22369 10.104C7.10103 10.2267 7.03969 10.3787 7.03969 10.56C7.03969 10.7414 7.10103 10.8934 7.22369 11.016C7.34636 11.1387 7.49836 11.2 7.67969 11.2ZM7.03969 8.64004H8.31969V4.80004H7.03969V8.64004ZM7.67969 14.4C6.79436 14.4 5.96236 14.232 5.18369 13.896C4.40503 13.56 3.72769 13.104 3.15169 12.528C2.57569 11.952 2.11969 11.2747 1.78369 10.496C1.44769 9.71737 1.27969 8.88537 1.27969 8.00004C1.27969 7.1147 1.44769 6.2827 1.78369 5.50404C2.11969 4.72537 2.57569 4.04804 3.15169 3.47204C3.72769 2.89604 4.40503 2.44004 5.18369 2.10404C5.96236 1.76804 6.79436 1.60004 7.67969 1.60004C8.56503 1.60004 9.39703 1.76804 10.1757 2.10404C10.9544 2.44004 11.6317 2.89604 12.2077 3.47204C12.7837 4.04804 13.2397 4.72537 13.5757 5.50404C13.9117 6.2827 14.0797 7.1147 14.0797 8.00004C14.0797 8.88537 13.9117 9.71737 13.5757 10.496C13.2397 11.2747 12.7837 11.952 12.2077 12.528C11.6317 13.104 10.9544 13.56 10.1757 13.896C9.39703 14.232 8.56503 14.4 7.67969 14.4ZM7.67969 13.12C9.10903 13.12 10.3197 12.624 11.3117 11.632C12.3037 10.64 12.7997 9.42937 12.7997 8.00004C12.7997 6.5707 12.3037 5.36004 11.3117 4.36804C10.3197 3.37604 9.10903 2.88004 7.67969 2.88004C6.25036 2.88004 5.03969 3.37604 4.04769 4.36804C3.05569 5.36004 2.55969 6.5707 2.55969 8.00004C2.55969 9.42937 3.05569 10.64 4.04769 11.632C5.03969 12.624 6.25036 13.12 7.67969 13.12Z" fill="#BFC2C8"/>
</g>
</g>
</svg>
