<svg width="14" height="14" viewBox="0 0 14 14" fill="none" xmlns="http://www.w3.org/2000/svg">
<g id="error">
<path id="icon" d="M7.00033 9.91675C7.1656 9.91675 7.30414 9.86085 7.41595 9.74904C7.52776 9.63723 7.58366 9.49869 7.58366 9.33341C7.58366 9.16814 7.52776 9.0296 7.41595 8.91779C7.30414 8.80598 7.1656 8.75008 7.00033 8.75008C6.83505 8.75008 6.69651 8.80598 6.5847 8.91779C6.4729 9.0296 6.41699 9.16814 6.41699 9.33341C6.41699 9.49869 6.4729 9.63723 6.5847 9.74904C6.69651 9.86085 6.83505 9.91675 7.00033 9.91675ZM6.41699 7.58341H7.58366V4.08341H6.41699V7.58341ZM7.00033 12.8334C6.19338 12.8334 5.43505 12.6803 4.72533 12.374C4.0156 12.0678 3.39824 11.6522 2.87324 11.1272C2.34824 10.6022 1.93262 9.9848 1.62637 9.27508C1.32012 8.56536 1.16699 7.80703 1.16699 7.00008C1.16699 6.19314 1.32012 5.4348 1.62637 4.72508C1.93262 4.01536 2.34824 3.398 2.87324 2.873C3.39824 2.348 4.0156 1.93237 4.72533 1.62612C5.43505 1.31987 6.19338 1.16675 7.00033 1.16675C7.80727 1.16675 8.5656 1.31987 9.27533 1.62612C9.98505 1.93237 10.6024 2.348 11.1274 2.873C11.6524 3.398 12.068 4.01536 12.3743 4.72508C12.6805 5.4348 12.8337 6.19314 12.8337 7.00008C12.8337 7.80703 12.6805 8.56536 12.3743 9.27508C12.068 9.9848 11.6524 10.6022 11.1274 11.1272C10.6024 11.6522 9.98505 12.0678 9.27533 12.374C8.5656 12.6803 7.80727 12.8334 7.00033 12.8334Z" fill="#A2254A"/>
</g>
</svg>
