<svg width="16" height="16" viewBox="0 0 16 16" fill="none" xmlns="http://www.w3.org/2000/svg">
<path d="M7.9987 11.334C8.18759 11.334 8.34592 11.2701 8.4737 11.1423C8.60148 11.0145 8.66536 10.8562 8.66536 10.6673C8.66536 10.4784 8.60148 10.3201 8.4737 10.1923C8.34592 10.0645 8.18759 10.0007 7.9987 10.0007C7.80981 10.0007 7.65148 10.0645 7.5237 10.1923C7.39592 10.3201 7.33203 10.4784 7.33203 10.6673C7.33203 10.8562 7.39592 11.0145 7.5237 11.1423C7.65148 11.2701 7.80981 11.334 7.9987 11.334ZM7.33203 8.66732H8.66536V4.66732H7.33203V8.66732ZM7.9987 14.6673C7.07648 14.6673 6.20981 14.4923 5.3987 14.1423C4.58759 13.7923 3.88203 13.3173 3.28203 12.7173C2.68203 12.1173 2.20703 11.4118 1.85703 10.6007C1.50703 9.78954 1.33203 8.92287 1.33203 8.00065C1.33203 7.07843 1.50703 6.21176 1.85703 5.40065C2.20703 4.58954 2.68203 3.88398 3.28203 3.28398C3.88203 2.68398 4.58759 2.20898 5.3987 1.85898C6.20981 1.50898 7.07648 1.33398 7.9987 1.33398C8.92092 1.33398 9.78759 1.50898 10.5987 1.85898C11.4098 2.20898 12.1154 2.68398 12.7154 3.28398C13.3154 3.88398 13.7904 4.58954 14.1404 5.40065C14.4904 6.21176 14.6654 7.07843 14.6654 8.00065C14.6654 8.92287 14.4904 9.78954 14.1404 10.6007C13.7904 11.4118 13.3154 12.1173 12.7154 12.7173C12.1154 13.3173 11.4098 13.7923 10.5987 14.1423C9.78759 14.4923 8.92092 14.6673 7.9987 14.6673Z" fill="#BFC2C8"/>
</svg>
