<svg width="17" height="18" viewBox="0 0 17 18" fill="none" xmlns="http://www.w3.org/2000/svg">
<g id="error">
<mask id="mask0_2136_10644" style="mask-type:alpha" maskUnits="userSpaceOnUse" x="0" y="0" width="17" height="18">
<rect id="Bounding box" x="0.820312" y="0.744141" width="15.36" height="16.512" fill="#D9D9D9"/>
</mask>
<g mask="url(#mask0_2136_10644)">
<path id="error_2" d="M8.50156 12.4401C8.6829 12.4401 8.8349 12.3742 8.95756 12.2423C9.08023 12.1105 9.14156 11.9471 9.14156 11.7521C9.14156 11.5572 9.08023 11.3938 8.95756 11.2619C8.8349 11.1301 8.6829 11.0641 8.50156 11.0641C8.32023 11.0641 8.16823 11.1301 8.04556 11.2619C7.9229 11.3938 7.86156 11.5572 7.86156 11.7521C7.86156 11.9471 7.9229 12.1105 8.04556 12.2423C8.16823 12.3742 8.32023 12.4401 8.50156 12.4401ZM7.86156 9.68812H9.14156V5.56012H7.86156V9.68812ZM8.50156 15.8801C7.61623 15.8801 6.78423 15.6995 6.00556 15.3383C5.2269 14.9771 4.54956 14.4869 3.97356 13.8677C3.39756 13.2485 2.94156 12.5204 2.60556 11.6833C2.26956 10.8463 2.10156 9.95185 2.10156 9.00012C2.10156 8.04838 2.26956 7.15398 2.60556 6.31692C2.94156 5.47985 3.39756 4.75172 3.97356 4.13252C4.54956 3.51332 5.2269 3.02312 6.00556 2.66192C6.78423 2.30072 7.61623 2.12012 8.50156 2.12012C9.3869 2.12012 10.2189 2.30072 10.9976 2.66192C11.7762 3.02312 12.4536 3.51332 13.0296 4.13252C13.6056 4.75172 14.0616 5.47985 14.3976 6.31692C14.7336 7.15398 14.9016 8.04838 14.9016 9.00012C14.9016 9.95185 14.7336 10.8463 14.3976 11.6833C14.0616 12.5204 13.6056 13.2485 13.0296 13.8677C12.4536 14.4869 11.7762 14.9771 10.9976 15.3383C10.2189 15.6995 9.3869 15.8801 8.50156 15.8801ZM8.50156 14.5041C9.9309 14.5041 11.1416 13.9709 12.1336 12.9045C13.1256 11.8381 13.6216 10.5367 13.6216 9.00012C13.6216 7.46358 13.1256 6.16212 12.1336 5.09572C11.1416 4.02932 9.9309 3.49612 8.50156 3.49612C7.07223 3.49612 5.86156 4.02932 4.86956 5.09572C3.87756 6.16212 3.38156 7.46358 3.38156 9.00012C3.38156 10.5367 3.87756 11.8381 4.86956 12.9045C5.86156 13.9709 7.07223 14.5041 8.50156 14.5041Z" fill="#6B7276"/>
</g>
</g>
</svg>
