<svg width="101" height="41" viewBox="0 0 101 41" fill="none" xmlns="http://www.w3.org/2000/svg">
<path d="M75.641 11.4775L75.4164 6.29758L74.7272 5.57913C74.6149 5.45298 74.5303 5.26991 74.418 5.07299L74.5303 4.98837C74.6426 5.12837 74.798 5.19914 74.9103 5.25606C75.1503 5.35452 75.501 5.42529 75.8949 5.43914C77.1472 5.49606 78.978 5.43913 79.8503 5.31298C80.0749 5.24221 80.2441 5.17299 80.4841 5.00376L81.6518 5.82067C81.4272 5.98989 81.2718 6.03143 81.1733 6.28527L81.0041 9.31137C80.8349 9.43752 80.6518 9.7052 80.5533 9.93135L81.1441 9.84674L81.9318 10.7052L81.8749 10.7898L80.4533 10.7329C79.3133 10.719 77.5672 10.7467 76.118 10.8036C75.9626 11.0144 75.9072 11.2683 75.8226 11.479H75.6395L75.641 11.4775ZM80.061 6.07297C79.0057 6.07297 77.598 6.12989 76.4995 6.15758L76.541 10.0852C77.6672 10.0714 79.061 10.0575 80.0318 9.95905L80.0595 6.07451L80.061 6.07297ZM84.6918 16.3758C83.4672 16.3758 80.7933 16.4328 79.2164 16.4605C78.738 16.4605 78.3149 16.5174 77.8518 16.5728C77.9087 16.2497 77.9641 15.9528 77.978 15.6436C77.9918 15.0528 77.9641 14.0805 77.8657 13.4482C77.7395 13.0267 77.3595 12.8005 76.9226 12.6036L76.9795 12.4636L79.3441 12.7728L79.0626 13.3082V15.8128C80.6257 15.8405 82.6795 15.8405 83.9472 15.7143L85.1149 15.2774L86.1703 16.3328L86.1426 16.4589L84.6933 16.3743L84.6918 16.3758ZM83.7349 13.5328V4.63761C83.6364 4.14531 83.158 3.87763 82.3841 3.45456L82.441 3.27148L85.1149 3.9607L84.8057 4.60838V8.47907C85.0733 8.47907 85.538 8.45138 85.7487 8.40831L86.7903 8.14062L87.5933 9.05599L87.5656 9.19598L86.1303 9.16829C85.8487 9.16829 85.2287 9.16829 84.8072 9.18214V12.2082C84.4549 12.6021 84.1318 13.039 83.9056 13.5313H83.7364L83.7349 13.5328Z" fill="white"/>
<path d="M93.7932 12.7443L95.0455 13.4766C94.8763 13.5474 94.7501 13.7305 94.6655 13.8981C93.6809 16.7273 92.4271 18.4165 90.724 19.7673C90.0348 20.3165 89.3024 20.6688 88.4163 20.8226L88.3594 20.5549C88.5563 20.5549 88.824 20.5272 89.0486 20.4565C89.4148 20.3442 89.6686 20.0057 89.9778 19.6965C91.3855 18.3596 92.8071 16.0658 93.4963 13.8274C92.6517 13.8274 91.4132 13.8981 90.5686 14.0381L90.0486 14.3058L89.3594 13.5874C89.2194 13.4474 89.0501 13.1505 88.9932 12.8551L89.1055 12.8135C89.204 13.0812 89.3732 13.1658 89.4855 13.2212C89.8378 13.3197 90.1609 13.3197 90.5132 13.3197C91.5409 13.3197 92.624 13.2489 93.2717 13.1505C93.4963 13.0382 93.6517 12.9105 93.7917 12.7428L93.7932 12.7443ZM100.127 22.2441C99.7747 22.8918 99.564 23.3564 99.2686 24.3979H99.1132C99.0717 23.3287 99.0717 22.7934 99.0717 21.8503V17.0365C98.4809 17.0504 97.8194 17.0781 97.1286 17.1212V21.4841C96.7763 22.1318 96.5517 22.5826 96.2701 23.6241H96.1148C96.0578 22.5549 96.0578 22.0195 96.0578 21.0903V12.5751C95.9732 12.0828 95.5224 11.8013 94.7486 11.392L94.8055 11.209L97.424 11.8982L97.1286 12.532V16.4304C97.8178 16.4166 98.5363 16.4027 99.0717 16.3596V11.7997C98.9871 11.3074 98.5363 11.0397 97.7486 10.6167L97.8194 10.4336L100.438 11.1228L100.129 11.7705V22.2426L100.127 22.2441Z" fill="white"/>
<path d="M19.121 18.4601C19.0672 18.5693 19.0102 18.6739 18.9533 18.7801C18.9056 18.6462 18.841 18.5201 18.7579 18.4031C17.9749 17.3078 15.9502 17.4585 14.1487 18.7462C12.3472 20.0339 11.5472 21.9 12.3302 22.9954C12.6687 23.4677 13.2518 23.72 13.9933 23.72C14.0949 23.72 14.201 23.7169 14.3087 23.7061C15.541 23.58 16.9641 23.1923 18.6825 21.9785V29.4568H20.7195V19.6877C20.8749 19.4385 21.0195 19.18 21.1533 18.9093C21.4933 18.2262 21.7379 17.5247 21.8948 16.8232L20.081 15.7324C19.8856 16.6401 19.5687 17.5601 19.121 18.4585V18.4601ZM14.7272 23.1369C14.461 23.2707 14.2379 23.3123 14.1256 23.3261C13.4502 23.3569 12.9256 23.163 12.6441 22.7692C11.9995 21.8661 12.7749 20.2031 14.3718 19.0616C15.2933 18.4031 16.2887 18.0601 17.0918 18.0601C17.681 18.0601 18.1672 18.2462 18.4395 18.6278C18.5749 18.817 18.6441 19.0447 18.6579 19.2985C17.6195 21.0262 16.2041 22.3508 14.7256 23.1369H14.7272Z" fill="white"/>
<path d="M30.7185 24.7334C31.1416 26.0672 30.8955 27.3841 30.0078 28.2994C29.6801 28.6379 29.3493 28.8148 28.9462 28.9394C27.4632 29.2917 25.9339 28.9671 24.7416 28.041C23.6293 27.1779 22.9878 25.9118 22.9785 24.5641C23.1632 23.818 23.8155 22.6965 26.0355 22.4088C29.8524 21.9134 32.1124 19.9458 32.8293 16.7612H30.4555C30.4555 16.7612 30.5201 19.8258 25.6139 21.4827C25.6139 21.4827 23.457 22.1903 22.9908 24.1595C23.2016 20.4796 26.4555 16.9304 26.4908 16.8935L26.2062 16.6289C26.1693 16.6689 25.2893 17.6227 24.397 19.0765C23.5693 20.4258 22.5847 22.4688 22.5908 24.5488C22.5955 26.0226 23.2924 27.4072 24.5047 28.3471C25.4524 29.0825 26.5955 29.4671 27.7708 29.4671C28.2185 29.4671 28.6708 29.4117 29.1185 29.2979C29.2785 29.2579 29.4401 29.2087 29.6001 29.1548C29.6385 29.1456 29.677 29.1348 29.717 29.1194C30.4755 28.8256 31.2155 28.3364 31.7908 27.7441C32.9078 26.5933 33.3662 24.9026 33.2339 23.3842L30.7185 24.7318V24.7334Z" fill="white"/>
<path d="M32.8335 12.4103C32.3027 13.6995 31.0135 13.8133 31.0135 13.8133H29.5612C29.6781 13.6395 29.7796 13.4579 29.855 13.2672C30.5658 11.5026 29.6827 10.6703 28.9073 10.4549C28.2273 10.2657 25.4012 9.9503 22.4797 13.8133H22.1412C22.0181 11.9718 21.055 9.45954 16.9443 8.62109C17.1474 8.66725 20.3858 9.47339 20.2827 13.8133H13.9658V14.201H20.2627C20.2489 14.3994 20.232 14.6025 20.2043 14.8164L21.9473 15.9133C21.9473 15.9133 21.9981 15.7425 22.0489 15.4517C22.1458 15.161 22.3335 14.7394 22.7012 14.1994H27.7766C27.4858 14.7533 27.0581 15.3887 26.4535 16.1209C26.4535 16.1209 28.212 15.4056 29.2612 14.1994H34.0581V13.8118L32.8319 12.4087L32.8335 12.4103ZM22.1566 14.2564C22.1566 14.2379 22.1566 14.2194 22.1566 14.201H22.1981C22.1843 14.2194 22.1704 14.2379 22.1581 14.2564H22.1566ZM27.9689 13.8133H22.9858C23.275 13.4348 23.6458 13.0118 24.1197 12.5456C24.5643 12.1087 25.0627 11.7256 25.6104 11.4272C26.235 11.0872 27.012 10.8072 27.532 11.0718C28.1212 11.3718 28.6935 12.1764 27.9689 13.8133Z" fill="white"/>
<path d="M16.9458 8.62068L16.9365 8.61914C16.9396 8.61914 16.9427 8.61914 16.9458 8.62068Z" fill="white"/>
<path d="M43.9276 24.1639H42.4476V24.5516H45.9937V26.2085H43.6737V26.5961H45.9937V28.253H42.4476V28.6407H52.9952V28.253L51.7691 26.85C51.2383 28.1392 49.9491 28.253 49.9491 28.253H48.0306V26.5961H51.7691V26.2085L50.5429 24.8054C50.0122 26.0946 48.7229 26.2085 48.7229 26.2085H48.0306V24.5516H52.9952V24.1639L51.7691 22.7608C51.3122 23.8716 50.2937 24.11 50.0183 24.1547C50.8399 23.0531 50.8845 21.6439 50.0876 20.847C49.1799 19.9393 47.5183 20.124 46.3845 21.2578C45.9522 21.6901 45.6522 22.207 45.5029 22.7331C44.9814 21.5132 43.666 20.2624 40.6045 19.7578C40.8183 19.7978 44.1768 20.4793 43.9276 24.1639ZM46.6599 21.5316C47.1891 21.0024 47.8445 20.7055 48.4537 20.6624C48.9953 20.6239 49.4537 21.0947 49.3953 21.6347C49.3306 22.2193 48.9676 22.907 48.3737 23.5024C48.0983 23.7777 47.7999 23.9993 47.4983 24.1639H45.9091C45.5891 23.3577 45.8891 22.3008 46.6599 21.5316Z" fill="white"/>
<path d="M41.1901 32.5534L41.5455 31.7149L42.1055 30.3949C42.1055 30.3949 41.1671 30.4611 40.3471 29.6488C40.1194 29.4242 39.944 29.1534 39.8025 28.8657C39.4686 28.1888 39.3117 27.5304 39.2317 26.8965V24.5535H41.4855V24.1658L40.2594 22.7628C40.0117 23.3628 39.6009 23.7074 39.2332 23.9058V21.5566H37.1963V24.1658H34.9425V24.5535H37.1963V26.7196C36.8978 26.6381 36.5563 26.6119 36.1794 26.6458C35.3255 26.7227 34.3917 27.0965 33.5471 27.6996C32.7025 28.3027 32.0455 29.0657 31.6978 29.8488C31.3332 30.6657 31.3455 31.4118 31.7286 31.9503C32.0455 32.3949 32.5825 32.641 33.2594 32.6703L33.2563 32.6733C33.2563 32.6733 34.3702 32.7687 35.6332 32.3118C35.6809 32.2949 35.7286 32.278 35.7763 32.2595C35.784 32.2564 35.7902 32.2549 35.7978 32.2518H35.7963C36.3055 32.0441 36.7609 31.7195 37.1963 31.2365V39.8147H39.2332V30.9872C39.8378 31.8457 40.4194 32.298 41.1886 32.558L41.1901 32.5534ZM36.4794 29.2396C35.6163 30.9749 35.0825 31.7426 34.2225 32.138C34.1409 32.1734 34.0348 32.2118 33.9148 32.2395C33.8332 32.2534 33.7517 32.2641 33.6717 32.2718C32.924 32.338 32.3455 32.1441 32.0455 31.7226C31.744 31.3011 31.7471 30.6918 32.0532 30.0057C32.3748 29.2857 32.9855 28.578 33.7748 28.015C34.564 27.4519 35.4302 27.1027 36.2163 27.0319C36.3132 27.0227 36.4055 27.0196 36.4963 27.0196C36.7532 27.0196 36.984 27.0565 37.1855 27.1227C37.0071 27.8534 36.7763 28.6442 36.4794 29.2396Z" fill="white"/>
<path d="M59.5088 29.6402L59.1534 29.7956C59.1534 29.7956 59.158 29.8079 59.1611 29.8156L57.2488 30.914C57.9319 31.7602 58.3426 32.8432 58.3426 34.0247C58.3426 35.8678 57.3442 37.4708 55.8672 38.3077C55.1688 38.5985 54.4088 38.76 53.6119 38.76C51.6765 38.76 49.9211 37.8277 48.7934 36.3093C51.178 35.417 52.6472 33.6909 53.198 31.2402H50.8242C50.8242 31.2402 50.9549 33.5647 48.1826 35.3016C48.1334 35.2016 48.0873 35.0986 48.0426 34.9939L48.0334 32.554H48.0349V32.1663L46.8088 30.7633C46.278 32.0525 44.9888 32.1663 44.9888 32.1663H42.1073V32.554H45.9965V39.6339C44.5796 39.9354 44.0719 38.6416 43.7811 37.6431L42.0596 38.6308C42.1088 38.8246 42.718 40.88 45.5919 40.5708C46.598 40.4631 47.1596 40.14 47.5211 39.5708C48.0473 38.737 48.0734 37.6093 48.0534 37.1001L48.0488 35.8739C49.1949 37.8785 51.2811 39.1462 53.6134 39.1462C57.1857 39.1462 60.0903 36.1309 60.0903 32.4232C60.0903 31.4525 59.8949 30.5156 59.5103 29.6387L59.5088 29.6402Z" fill="white"/>
<path d="M42.8508 37.3118C44.9631 36.5719 45.4569 34.678 45.46 34.6657V34.278L44.2339 32.875C43.7031 34.1642 42.4139 34.278 42.4139 34.278H40.6016V34.6657H43.4954C43.4954 34.678 43.3123 36.4595 41.617 36.9257C41.5954 36.9334 41.5723 36.9395 41.5477 36.9457C41.5477 36.9457 40.7477 37.1734 39.9816 36.6642L39.7646 36.7903C39.8185 36.858 40.5754 37.7626 42.1431 37.498C42.3631 37.4611 42.597 37.4011 42.8493 37.3134L42.8508 37.3118Z" fill="white"/>
<path d="M43.8525 29.9235C44.0525 29.8527 47.2356 28.785 48.7941 32.0757L50.3756 31.1634C49.6387 29.9188 47.8818 28.4066 43.8525 29.9235Z" fill="white"/>
<path d="M72.2306 23.9522H65.0244V19.1446H70.4229V18.7569L69.1967 17.3538C68.6659 18.643 67.3767 18.7569 67.3767 18.7569H65.0259V13.9493H71.9306V13.5616L70.7044 12.1585C70.1736 13.4477 68.8844 13.5616 68.8844 13.5616H60.2675C60.6029 12.6693 61.0152 11.2739 61.1398 10.717L59.2152 9.55859C59.0352 10.3955 58.3936 12.4985 58.0229 13.5616H53.9275C52.2844 13.6047 50.9629 14.7 50.9629 16.0385C50.9629 17.3769 52.3367 18.5153 54.0244 18.5153C54.0444 18.5153 54.0644 18.5153 54.0844 18.5153C54.8013 18.523 55.4613 18.2907 55.4613 18.2907C57.3275 17.8184 58.8906 16.4215 60.0306 14.1293C60.0567 14.077 60.0844 14.017 60.1121 13.9493H62.989V18.7569H57.4967V23.9522H54.4229V24.3398H62.989V29.2044H65.0259V24.3398H72.2321V23.9522H72.2306ZM55.0075 17.8907C54.6937 18.0477 54.3952 18.1 54.226 18.1184C54.1583 18.123 54.0921 18.1277 54.0229 18.1277C52.549 18.1277 51.349 17.1908 51.349 16.0385C51.349 14.8862 52.5475 13.9493 54.0229 13.9493H57.8783C57.149 15.8815 56.3413 17.1723 55.006 17.8923L55.0075 17.8907ZM59.5321 23.9522V19.1446H62.9875V23.9522H59.5321Z" fill="white"/>
<path d="M87.5318 22.5464C87.0011 23.8356 85.7119 23.9494 85.7119 23.9494H84.7595C84.7703 23.9217 84.7842 23.8956 84.7934 23.8679C85.4672 22.0895 84.5642 21.1987 83.8457 21.0556C83.1826 20.9233 80.5719 20.5864 77.7857 23.9494H77.0303C76.778 22.1695 75.6549 19.988 71.8719 19.2188C71.8719 19.2188 75.0842 19.8849 75.218 23.9494H68.8965V24.3371H75.2211C75.2165 24.6756 75.1934 25.0325 75.1442 25.4156L76.8872 26.5125C76.8872 26.5125 76.938 26.3417 76.9888 26.0509C77.1119 25.6817 77.3826 25.0986 77.9811 24.3356H82.9719C82.8672 24.5679 82.7349 24.8186 82.5719 25.0894C82.0534 25.9525 81.3965 26.2909 81.1334 26.3986C79.7057 26.9309 78.3272 26.9709 78.2857 26.9709H70.5534V27.3586H74.0642C73.1411 28.3478 72.6565 29.3216 72.4519 30.2293H69.3057V30.617H72.3811C72.2257 31.7139 72.4657 32.7016 72.8057 33.4877H70.5534V33.8754H77.2688V36.1292H69.3057V36.5169H77.2688V39.5907H79.3057V36.5169H88.3457V36.0984L87.1457 34.7261C86.6149 36.0153 85.3257 36.1292 85.3257 36.1292H79.3057V33.8754H87.098V33.3646L85.9795 32.0847C85.4488 33.3739 84.1595 33.4877 84.1595 33.4877H82.8057C83.3703 33.1431 84.1657 32.5246 84.5318 31.6154C84.6672 31.2801 84.7426 30.9431 84.7657 30.6155H88.3488V30.197L87.1488 28.8247C86.618 30.1139 85.3288 30.2278 85.3288 30.2278H84.7657C84.698 29.1955 84.0749 28.2955 83.0319 27.8632C82.1149 27.4832 80.6919 27.5232 79.3088 28.0124V27.3571H87.1011V26.8463L85.9826 25.5663C85.4518 26.8555 84.1626 26.9694 84.1626 26.9694H80.6534C80.8965 26.8986 81.1457 26.8155 81.3965 26.7155C81.3965 26.7155 81.3965 26.7171 81.3949 26.7186C81.3949 26.7186 81.4319 26.7032 81.498 26.6755C81.8534 26.5294 82.2088 26.354 82.5472 26.1386C83.2426 25.7294 84.0826 25.114 84.5611 24.3325H88.758V23.9448L87.5318 22.5418V22.5464ZM77.0965 24.8586C77.0965 24.694 77.0903 24.5186 77.0765 24.3386H77.4796C77.3519 24.5048 77.2242 24.6756 77.0965 24.8586ZM73.7334 30.6216H75.9196C75.238 31.6247 74.9226 32.6139 74.7903 33.1462C74.1965 32.217 73.8734 31.3739 73.7349 30.6216H73.7334ZM77.2719 33.4923H75.1103C75.1872 33.12 75.5026 31.8431 76.398 30.6216H77.2719V33.4923ZM77.2719 30.2339H76.7057C76.8534 30.0601 77.0149 29.8893 77.1903 29.7247C77.2165 29.7001 77.2442 29.6755 77.2719 29.6509V30.2339ZM77.2719 29.1401C77.1534 29.2355 77.0365 29.3355 76.9242 29.4416C76.6519 29.697 76.4134 29.9632 76.2026 30.2339H73.6749C73.538 28.977 73.9103 28.0063 74.3026 27.3632H77.2719V29.1416V29.1401ZM80.8349 33.4923H79.3088V30.6216H82.6995C82.5026 32.1247 81.3272 33.1308 80.8349 33.4923ZM80.3288 28.1401C80.5057 28.1078 81.2288 28.0063 81.8257 28.3155C81.9226 28.3786 82.0088 28.4447 82.0857 28.514C82.4426 28.8401 82.6457 29.2986 82.7042 29.7785C82.7226 29.9339 82.7303 30.0862 82.7288 30.2324H79.3088V28.4355C79.6488 28.3078 79.9919 28.2093 80.3288 28.1386V28.1401ZM83.1303 23.951H78.3026C78.6396 23.5602 79.0565 23.131 79.5719 22.6633C79.5719 22.6633 81.0857 21.3049 82.4703 21.6741C83.2103 21.871 83.5749 22.6679 83.1303 23.951Z" fill="white"/>
<path d="M98.1084 28.2984C98.1084 28.1522 98.0945 28.0091 98.0684 27.8691C97.333 28.2614 96.833 29.0353 96.833 29.926C96.833 30.0722 96.8469 30.2152 96.873 30.3552C97.6084 29.9629 98.1084 29.1891 98.1084 28.2984Z" fill="white"/>
<path d="M99.7523 31.4156C98.8385 30.5018 97.4046 30.4264 96.4046 31.1879C96.4092 31.1248 96.4123 31.0602 96.4123 30.9956C96.4123 29.5864 95.2708 28.4434 93.8615 28.4434C93.2154 28.4434 92.6261 28.6849 92.1769 29.0803C94.0015 29.1295 95.4677 30.6233 95.4677 32.4587C95.4677 32.5248 95.4646 32.591 95.4615 32.6556C95.4492 32.7125 95.4385 32.7679 95.4292 32.8248C95.1031 32.971 94.7431 33.051 94.3631 33.051C92.9569 33.051 91.8077 31.9464 91.7369 30.5587C91.5554 30.8956 91.4585 31.2848 91.4708 31.6971C91.5077 32.8371 92.4169 33.7833 93.5554 33.8679C93.8492 33.8894 94.1308 33.8525 94.3923 33.7709L94.44 33.7525C94.0292 34.2556 93.4892 35.1571 93.5769 36.3417C93.6385 37.1786 94.0477 37.957 94.6969 38.477C95.2154 38.8908 95.8354 39.0816 96.4769 39.1093C96.6077 39.1155 96.7815 39.1201 96.8785 39.1155C98.3369 39.0385 99.5261 37.9847 99.5261 36.594C99.5261 35.2032 98.3384 34.0725 96.8785 34.0725C95.7092 34.0725 94.6938 34.7863 94.3477 35.8494L94.5646 35.9201C94.7246 35.4248 95.0477 35.014 95.4661 34.7294C96.2461 34.2002 97.2846 34.3556 97.8754 35.0909C98.2061 35.5032 98.4046 36.0263 98.4046 36.5955C98.4046 37.5324 97.8692 38.3447 97.0861 38.7432C96.9231 38.8262 96.7431 38.8693 96.5615 38.8801C96.5615 38.8801 96.56 38.8801 96.5585 38.8801C96.5262 38.8816 96.4954 38.8832 96.4646 38.8832C95.8785 38.8801 95.3123 38.6801 94.84 38.3016C94.24 37.8216 93.8615 37.1017 93.8046 36.3278C93.6769 34.6094 95.0185 33.4771 95.0185 33.4771C95.0215 33.474 95.3046 33.1756 95.5092 32.9925C95.6723 32.8448 95.8569 32.694 96.0323 32.5879C97.3261 31.8356 99.0123 32.011 100.12 33.1202C100.254 33.254 100.374 33.3956 100.48 33.5448C100.577 32.7879 100.335 31.9971 99.7538 31.4156H99.7523Z" fill="white"/>
<path d="M18.7217 9.25085C13.2494 7.15551 7.34788 9.08778 3.91096 13.7662C-1.29365 20.706 0.595584 30.972 7.73711 35.8165C13.8202 40.1349 23.9663 39.4041 28.6294 33.3042C29.054 32.7504 29.4402 32.1566 29.7278 31.5212L29.7709 31.5381C29.6309 31.8643 29.4617 32.1719 29.2786 32.4735C28.7278 33.375 28.0463 34.195 27.2771 34.9196C25.2202 36.8657 22.5232 38.0503 19.7432 38.5026C10.851 40.1703 2.44635 34.5657 0.763275 25.6398C-0.0121081 21.4445 0.92789 16.8922 3.54789 13.4908C5.29404 11.2508 7.67404 9.43393 10.4279 8.65702C13.114 7.90473 16.3171 8.04319 18.7217 9.25393V9.25085Z" fill="white"/>
<path d="M15.3281 8.30427C15.3281 8.30427 17.005 8.40119 18.6804 9.13656L18.3158 9.26887C18.3158 9.26887 17.502 8.6658 15.3281 8.43658V8.30273V8.30427Z" fill="white"/>
<path d="M71.8917 13.5912C69.1902 9.66208 65.2563 6.54214 60.7656 4.92371C54.5194 2.70991 47.0579 3.25451 41.6148 7.21136C38.4948 9.45593 36.2656 12.8651 35.4841 16.6342L35.4395 16.625C35.8118 14.7343 36.5225 12.9036 37.5548 11.2682C41.7702 4.50064 50.6102 2.15915 58.1179 3.68989C61.9394 4.44679 65.4856 6.39752 68.2994 9.06824C69.6994 10.4051 70.9625 11.8959 71.9317 13.5682L71.8917 13.5912Z" fill="white"/>
<path d="M71.7709 13.5026L71.1909 13.1195C71.1909 13.1195 70.6709 12.3518 70.7047 12.1565C70.7386 11.9611 70.7109 11.8457 70.7109 11.8457L71.4647 12.8995L71.8478 13.4672L71.7709 13.5041V13.5026Z" fill="white"/>
<path d="M3.64844 6.68449C5.04536 4.83837 7.11151 3.57993 9.2192 2.69379C9.57304 2.56918 10.2807 2.29073 10.6253 2.20303C10.87 2.13688 11.3392 1.99996 11.5823 1.93535C11.8761 1.85996 12.7253 1.69997 13.0407 1.6292C13.3869 1.57843 14.1869 1.47689 14.5177 1.4292C15.0884 1.39228 15.9284 1.31536 16.5007 1.31536C17.8053 1.28921 19.1776 1.39843 20.4653 1.60766C20.9192 1.7092 21.4792 1.79997 21.9253 1.9215C23.1946 2.24457 24.4946 2.67995 25.6869 3.21378C28.1269 4.26607 30.3592 5.73066 32.4807 7.29678C34.573 8.85214 36.613 10.5583 39.0715 11.4767C42.3961 12.7459 46.3038 12.5905 49.3561 10.6875C51.8853 9.15674 53.6191 6.58295 54.593 3.82762C55.0253 2.58918 55.3468 1.30613 55.4899 0C55.3945 1.31382 55.1145 2.61226 54.7099 3.86762C53.7145 7.01525 51.653 9.93827 48.653 11.4475C45.6668 13.0213 42.0561 13.0428 38.9269 11.8721C36.4161 10.949 34.3269 9.23059 32.2084 7.66754C29.9807 5.99681 27.6361 4.47684 25.073 3.39993C24.0453 2.97225 22.9146 2.58456 21.8315 2.30919C21.3946 2.18765 20.8438 2.09534 20.3992 1.99381C19.6438 1.86458 18.7453 1.74458 17.9746 1.69381C17.5023 1.64304 16.9838 1.66304 16.5069 1.64612C15.9407 1.63689 15.1146 1.69997 14.5484 1.72766C14.2069 1.76458 13.4315 1.86304 13.0884 1.9015C12.5546 2.00765 11.6915 2.14765 11.1715 2.30611C10.9423 2.37072 10.4592 2.48303 10.2269 2.57072L9.29612 2.88148C8.41612 3.22301 7.45305 3.66916 6.64689 4.16146C5.5392 4.85067 4.47151 5.66143 3.65151 6.68756L3.64844 6.68449Z" fill="white"/>
</svg>
