<svg width="14" height="14" viewBox="0 0 14 14" fill="none" xmlns="http://www.w3.org/2000/svg">
<g id="error">
<path id="icon" d="M6.99996 9.91699C7.16524 9.91699 7.30378 9.86109 7.41558 9.74928C7.52739 9.63748 7.58329 9.49894 7.58329 9.33366C7.58329 9.16838 7.52739 9.02984 7.41558 8.91803C7.30378 8.80623 7.16524 8.75033 6.99996 8.75033C6.83468 8.75033 6.69614 8.80623 6.58433 8.91803C6.47253 9.02984 6.41663 9.16838 6.41663 9.33366C6.41663 9.49894 6.47253 9.63748 6.58433 9.74928C6.69614 9.86109 6.83468 9.91699 6.99996 9.91699ZM6.41663 7.58366H7.58329V4.08366H6.41663V7.58366ZM6.99996 12.8337C6.19301 12.8337 5.43468 12.6805 4.72496 12.3743C4.01524 12.068 3.39788 11.6524 2.87288 11.1274C2.34788 10.6024 1.93225 9.98505 1.626 9.27533C1.31975 8.5656 1.16663 7.80727 1.16663 7.00033C1.16663 6.19338 1.31975 5.43505 1.626 4.72533C1.93225 4.0156 2.34788 3.39824 2.87288 2.87324C3.39788 2.34824 4.01524 1.93262 4.72496 1.62637C5.43468 1.32012 6.19301 1.16699 6.99996 1.16699C7.8069 1.16699 8.56524 1.32012 9.27496 1.62637C9.98468 1.93262 10.602 2.34824 11.127 2.87324C11.652 3.39824 12.0677 4.0156 12.3739 4.72533C12.6802 5.43505 12.8333 6.19338 12.8333 7.00033C12.8333 7.80727 12.6802 8.5656 12.3739 9.27533C12.0677 9.98505 11.652 10.6024 11.127 11.1274C10.602 11.6524 9.98468 12.068 9.27496 12.3743C8.56524 12.6805 7.8069 12.8337 6.99996 12.8337Z" fill="#FF004C"/>
</g>
</svg>
