<svg width="290" height="151" viewBox="0 0 290 151" fill="none" xmlns="http://www.w3.org/2000/svg">
<path fill-rule="evenodd" clip-rule="evenodd" d="M0 9.99999C0 4.47714 4.47715 0 10 0H280C285.523 0 290 4.47715 290 10L290 52.637C277.384 52.637 267.157 62.8639 267.157 75.4794C267.157 88.095 277.384 98.3219 290 98.3219L290 140.959C290 146.482 285.523 150.959 280 150.959H10C4.47715 150.959 0 146.482 0 140.959V98.3219C0.000219344 98.3219 0.000438689 98.3219 0.000658035 98.3219C12.6162 98.3219 22.8431 88.095 22.8431 75.4794C22.8431 62.8639 12.6162 52.637 0.000658035 52.637C0.000438689 52.637 0.000219344 52.637 0 52.637V9.99999Z" fill="url(#paint0_linear_4795_10864)"/>
<defs>
<linearGradient id="paint0_linear_4795_10864" x1="0" y1="75.4794" x2="290" y2="75.4794" gradientUnits="userSpaceOnUse">
<stop stop-color="#FEFF24"/>
<stop offset="1" stop-color="#CDFF3F"/>
</linearGradient>
</defs>
</svg>
