<svg width="164" height="53" viewBox="0 0 164 53" fill="none" xmlns="http://www.w3.org/2000/svg">
<g id="tving &#235;&#161;&#156;&#234;&#179;&#160;">
<g id="TVING_logo">
<g id="logo">
<g id="Clip path group">
<mask id="mask0_4673_3866" style="mask-type:luminance" maskUnits="userSpaceOnUse" x="0" y="6" width="164" height="41">
<g id="clip-path">
<path id="&#236;&#130;&#172;&#234;&#176;&#129;&#237;&#152;&#149; 4339" d="M0 6.11523H163.389V46.5439H0V6.11523Z" fill="white"/>
</g>
</mask>
<g mask="url(#mask0_4673_3866)">
<g id="&#234;&#183;&#184;&#235;&#163;&#185; 5598">
<path id="&#237;&#140;&#168;&#236;&#138;&#164; 4595" d="M107.051 28.9008L115.009 45.1057H127.374V7.08984H115.536V22.9149C115.537 23.1541 115.457 23.3864 115.31 23.574C115.163 23.7616 114.957 23.8934 114.726 23.9479C114.496 24.0024 114.253 23.9765 114.039 23.8742C113.825 23.772 113.651 23.5996 113.546 23.385L105.548 7.08984H93.1826V45.1038H105.056V29.369C105.056 29.13 105.136 28.898 105.283 28.7107C105.43 28.5234 105.636 28.392 105.867 28.3377C106.097 28.2834 106.339 28.3095 106.553 28.4118C106.768 28.514 106.941 28.6863 107.046 28.9008" fill="#FF153C"/>
<path id="&#236;&#130;&#172;&#234;&#176;&#129;&#237;&#152;&#149; 4338" d="M74.8711 7.08984H87.8548V45.1038H74.8711V7.08984Z" fill="#FF153C"/>
<path id="&#237;&#140;&#168;&#236;&#138;&#164; 4596" d="M131.214 22.4993V29.5064C131.214 36.3216 133.762 41.2487 138.784 44.1485C146.797 48.7766 158.337 45.92 163.395 42.1457V24.4551H151.669V35.5806L151.445 35.669C150.514 36.0336 149.513 36.1832 148.517 36.1067C147.521 36.0302 146.555 35.7297 145.689 35.2271C144.874 34.5635 144.237 33.7041 143.836 32.7276C143.436 31.7511 143.284 30.6888 143.396 29.638V21.7979C143.28 20.7796 143.533 19.7532 144.11 18.9096C144.687 18.0659 145.548 17.4623 146.533 17.2112C147.604 16.9508 148.733 17.1107 149.692 17.6584C150.651 18.2062 151.369 19.1009 151.699 20.1618L163.057 14.0142C161.611 11.4781 159.495 9.39686 156.946 8.00235C154.396 6.60783 151.514 5.95473 148.618 6.11575C147.852 6.11575 147.107 6.15337 146.397 6.21731C142.557 6.44882 138.894 7.9197 135.946 10.4129C134.349 11.9706 133.102 13.8552 132.287 15.94C131.473 18.0247 131.11 20.2613 131.223 22.4993" fill="#FF153C"/>
<path id="&#237;&#140;&#168;&#236;&#138;&#164; 4597" d="M32.2159 7.08984H0V18.2191H9.69069V45.1113H22.5066V18.2191H32.2066L32.2159 7.08984Z" fill="#FF153C"/>
<path id="&#237;&#140;&#168;&#236;&#138;&#164; 4598" d="M58.8146 7.09026L50.6968 32.5439C50.6214 32.7856 50.4626 32.9919 50.2492 33.1255C50.0358 33.2591 49.782 33.3111 49.5339 33.2719C49.2858 33.2328 49.0599 33.1051 48.8971 32.9122C48.7343 32.7193 48.6455 32.4738 48.6468 32.2204V7.08838H36.3359V45.1042H59.6141L72.3555 7.09026H58.8146Z" fill="#FF153C"/>
</g>
</g>
</g>
</g>
</g>
</g>
</svg>
