<svg width="63" height="28" viewBox="0 0 63 28" fill="none" xmlns="http://www.w3.org/2000/svg">
<g id="&#235;&#160;&#136;&#236;&#157;&#180;&#236;&#150;&#180; 1">
<g id="Group">
<path id="Vector" d="M40.0363 22.8262V20.1945C39.9179 20.1622 39.8091 20.1311 39.6979 20.1012C37.7155 19.5811 36.1444 18.4847 35.0396 16.7497C34.4956 15.896 34.211 14.9407 34.0783 13.9435C33.9467 12.9511 33.9324 11.9563 34.1213 10.9675C34.2373 10.3601 34.4322 9.78015 34.7299 9.23612C34.7694 9.16438 34.7993 9.08786 34.8423 8.9946C34.7347 8.9384 34.6414 8.89296 34.5517 8.84155C34.101 8.58448 33.6275 8.35969 33.2066 8.05958C32.4605 7.52631 32.1628 6.76107 32.2847 5.86073C32.3983 5.02256 32.8611 4.4044 33.6418 4.0708C34.4035 3.74558 35.1639 3.80776 35.8598 4.25972C36.2938 4.5419 36.6956 4.8743 37.1009 5.19952C37.3819 5.42431 37.6438 5.67421 37.9128 5.91334C39.1025 6.9751 40.3759 7.92327 41.7557 8.72676C42.0211 8.88101 42.2806 9.04601 42.5341 9.22058C42.8306 9.42384 42.9227 9.6833 42.8294 9.9882C42.735 10.2919 42.5185 10.4426 42.1515 10.4473C41.4305 10.4581 40.7107 10.4438 39.9945 10.3349C39.4971 10.2584 39.1192 10.482 38.9387 10.9507C38.6457 11.7124 38.6314 12.5051 38.7163 13.3026C38.7474 13.5956 38.8084 13.8909 38.8968 14.1719C39.3069 15.4847 40.4859 16.403 41.8645 16.4951C42.3846 16.5297 42.9011 16.4998 43.4129 16.3887C44.8704 16.0718 45.7146 15.0662 45.9501 13.7056C46.0362 13.2082 46.0553 12.6916 46.041 12.1859C46.0027 10.8826 45.9214 9.58167 45.8724 8.27839C45.8497 7.68533 45.8485 7.09108 45.87 6.49803C45.8796 6.25052 45.9429 5.99345 46.0338 5.76149C46.1641 5.43268 46.42 5.21028 46.7656 5.10267C47.0693 5.00821 47.3718 4.91136 47.6731 4.81332C48.1083 4.67342 48.5184 4.48451 48.9118 4.24657C50.2689 3.42753 51.9691 4.09233 52.3852 5.5917C52.6531 6.55901 52.2788 7.59207 51.4227 8.15045C51.0329 8.40393 50.6085 8.60361 50.1995 8.8272C50.1087 8.87622 50.0166 8.92285 49.9162 8.97666C51.0879 11.2138 51.1525 13.5023 50.1888 15.7729C49.2167 18.065 47.4017 19.452 45.0115 20.1192V22.7963C45.0629 22.8142 45.1012 22.8393 45.1406 22.8405C46.475 22.8895 47.7962 22.8046 49.0457 22.2905C52.0277 21.0625 53.8153 18.8601 54.3593 15.6748C54.4358 15.2288 54.4562 14.7673 54.4585 14.3142C54.4681 11.9599 54.4681 9.60678 54.4597 7.2525C54.4573 6.53509 54.6738 5.91334 55.2046 5.4267C55.928 4.7631 56.7817 4.5981 57.6857 4.94843C58.5956 5.30115 59.1145 6.01736 59.1683 6.98945C59.2209 7.96273 59.1874 8.93959 59.191 9.91527C59.191 10.0408 59.191 10.1652 59.191 10.323C59.3345 10.3314 59.4457 10.3397 59.5581 10.3445C59.9598 10.3601 60.3652 10.3445 60.7633 10.3935C61.6541 10.5035 62.5951 11.3226 62.4923 12.5864C62.4098 13.6087 61.5585 14.417 60.4991 14.4481C60.181 14.4576 59.863 14.4493 59.5449 14.4529C59.4421 14.4529 59.3381 14.4624 59.209 14.4684C59.1994 14.5916 59.185 14.6944 59.1827 14.7972C59.0679 20.6967 54.828 25.9445 48.7815 27.1629C47.9373 27.3327 47.0824 27.4128 46.2227 27.414C41.4616 27.4188 36.7004 27.4188 31.9404 27.4152C29.4307 27.414 27.306 25.8692 26.5874 23.534C26.4176 22.9828 26.3482 22.4184 26.3494 21.8409C26.353 18.1511 26.3494 14.4612 26.3518 10.7714C26.3518 10.439 26.3112 10.1173 26.1796 9.80885C25.8114 8.94916 24.8859 8.44698 23.976 8.61557C23.0721 8.78176 22.369 9.58765 22.3272 10.5071C22.3224 10.6231 22.3248 10.7403 22.3248 10.8575C22.3248 15.5337 22.326 20.21 22.3212 24.8863C22.3212 25.1697 22.2985 25.4626 22.2267 25.7352C21.9649 26.736 21.0789 27.3936 20.0398 27.3877C19.0008 27.3817 18.1172 26.7013 17.847 25.6862C17.7932 25.4842 17.7657 25.2689 17.7657 25.0585C17.7609 20.1813 17.7501 15.303 17.7657 10.4258C17.7752 7.45217 20.0004 4.78104 22.925 4.17244C26.8958 3.34623 30.221 6.09747 30.8009 9.5733C30.8715 10.0002 30.9073 10.4366 30.9085 10.8694C30.9169 14.4529 30.9133 18.0375 30.9133 21.6209C30.9133 21.7273 30.9109 21.8326 30.9157 21.939C30.936 22.3993 31.229 22.7389 31.6809 22.8238C31.7838 22.8429 31.8914 22.8501 31.9966 22.8501C34.5625 22.8513 37.1284 22.8513 39.6943 22.8501C39.7984 22.8501 39.9024 22.8393 40.0375 22.8321L40.0363 22.8262Z" fill="white"/>
<path id="Vector_2" d="M7.01175 4.59816C8.19906 4.59816 9.38636 4.60772 10.5737 4.59577C13.4313 4.56707 16.1383 6.6607 16.5915 9.83163C16.6166 10.0098 16.631 10.1903 16.6333 10.3709C16.6573 13.2871 16.2376 16.1149 14.957 18.7705C14.2982 20.1372 13.4493 21.3711 12.3899 22.4592C11.3927 23.4826 10.2006 24.2204 8.93798 24.8648C7.35252 25.6731 5.66183 26.1275 3.91854 26.4073C3.4606 26.4802 2.99309 26.5137 2.52916 26.5316C2.30079 26.54 2.06524 26.4874 1.84165 26.43C0.466625 26.0749 0.0660733 24.3029 1.0274 23.3451C1.3849 22.99 1.80578 22.7712 2.2984 22.6708C3.17961 22.4914 4.07637 22.3587 4.93845 22.11C8.54221 21.0686 10.7745 18.6904 11.6653 15.0567C11.9714 13.8049 12.0551 12.5243 12.0396 11.2389C12.024 9.9775 11.0316 8.93487 9.77376 8.83443C9.60517 8.82128 9.43538 8.81769 9.2656 8.81769C7.23056 8.81769 5.19552 8.8153 3.16048 8.81769C2.70493 8.81769 2.27807 8.73041 1.89187 8.47693C1.11588 7.96757 0.758369 7.02538 1.00827 6.14416C1.25457 5.27491 2.07122 4.62446 2.97754 4.60413C3.71886 4.5874 4.46138 4.59935 5.20389 4.59935C5.80771 4.59935 6.41272 4.59935 7.01653 4.59935L7.01175 4.59816Z" fill="white"/>
<path id="Vector_3" d="M44.8669 4.96527C44.8669 5.85486 44.8692 6.74444 44.8669 7.63522C44.8645 8.31795 44.4017 8.68502 43.7369 8.53317C43.6042 8.50328 43.4691 8.45784 43.3531 8.38849C42.6094 7.94131 41.8705 7.48576 41.1304 7.0314C41.0586 6.98716 40.9953 6.92977 40.9247 6.88314C40.4154 6.54357 40.1798 6.05812 40.1691 5.45789C40.1547 4.63168 40.1451 3.80547 40.138 2.98045C40.1356 2.71621 40.138 2.45077 40.1583 2.18653C40.2527 1.02313 41.1949 0.0881154 42.3141 0.00680946C43.5935 -0.0864532 44.6158 0.789977 44.8286 1.9175C44.8633 2.10283 44.8657 2.29653 44.8669 2.48664C44.8704 3.31285 44.8681 4.13906 44.8681 4.96527H44.8669Z" fill="white"/>
</g>
</g>
</svg>
