<svg width="25" height="24" viewBox="0 0 25 24" fill="none" xmlns="http://www.w3.org/2000/svg">
<g id="icon">
<path id="Vector" fill-rule="evenodd" clip-rule="evenodd" d="M12.5087 2C6.69766 2 2 6.58331 2 12.2535C2 16.786 5.00995 20.6226 9.18555 21.9805C9.7076 22.0826 9.89883 21.7599 9.89883 21.4885C9.89883 21.2508 9.88162 20.436 9.88162 19.587C6.95836 20.1983 6.34962 18.3647 6.34962 18.3647C5.87983 17.1764 5.18375 16.871 5.18375 16.871C4.22697 16.2429 5.25345 16.2429 5.25345 16.2429C6.31477 16.3108 6.87167 17.2954 6.87167 17.2954C7.81103 18.857 9.32472 18.4158 9.93368 18.1441C10.0206 17.482 10.2991 17.0237 10.5949 16.7691C8.2634 16.5314 5.81035 15.6487 5.81035 11.7102C5.81035 10.5898 6.22765 9.67309 6.88888 8.96018C6.78456 8.7056 6.4191 7.65289 6.99342 6.24394C6.99342 6.24394 7.88073 5.97228 9.88141 7.29644C10.738 7.07199 11.6213 6.95782 12.5087 6.95685C13.396 6.95685 14.3005 7.07581 15.1358 7.29644C17.1366 5.97228 18.024 6.24394 18.024 6.24394C18.5983 7.65289 18.2326 8.7056 18.1283 8.96018C18.8069 9.67309 19.207 10.5898 19.207 11.7102C19.207 15.6487 16.754 16.5143 14.405 16.7691C14.7879 17.0916 15.1183 17.7026 15.1183 18.6703C15.1183 20.0453 15.1011 21.1489 15.1011 21.4883C15.1011 21.7599 15.2926 22.0826 15.8144 21.9808C19.99 20.6224 23 16.786 23 12.2535C23.0172 6.58331 18.3023 2 12.5087 2Z" fill="white"/>
</g>
</svg>
