<svg width="36" height="36" viewBox="0 0 36 36" fill="none" xmlns="http://www.w3.org/2000/svg">
<g id="Group 1000005865" filter="url(#filter0_d_804_2314)">
<path id="Vector" d="M18 8.73865C15.2815 8.73865 14.9427 8.7508 13.8789 8.79249C12.8106 8.84111 12.088 8.99452 11.4504 9.22377C10.7832 9.45713 10.1789 9.82241 9.67958 10.2942C9.16942 10.756 8.77488 11.3158 8.52382 11.9342C8.27628 12.5247 8.11064 13.1939 8.05813 14.1833C8.01 15.1692 8 15.4823 8 18C8 20.5177 8.01313 20.8314 8.05813 21.8167C8.11064 22.8032 8.27628 23.4753 8.52382 24.0658C8.77579 24.6838 9.1702 25.2435 9.67958 25.7059C10.1782 26.1783 10.7827 26.5437 11.4504 26.7763C12.088 27.0026 12.8137 27.1589 13.8789 27.2075C14.9434 27.2521 15.2815 27.2614 18 27.2614C20.7185 27.2614 21.0573 27.2492 22.1211 27.2075C23.1863 27.1589 23.912 27.002 24.5496 26.7763C25.2168 26.5429 25.8211 26.1776 26.3204 25.7059C26.8322 25.2453 27.227 24.6851 27.4762 24.0658C27.7206 23.4753 27.8894 22.8032 27.9419 21.8167C27.99 20.8309 28 20.5177 28 18C28 15.4823 27.9869 15.1686 27.9419 14.1833C27.8894 13.1968 27.72 12.5212 27.4762 11.9342C27.2242 11.3162 26.8298 10.7566 26.3204 10.2942C25.8231 9.82021 25.2182 9.45458 24.5496 9.22377C23.912 8.99452 23.1863 8.84111 22.1211 8.79249C21.0566 8.74791 20.7185 8.73865 18 8.73865ZM18 10.4059C20.6697 10.4059 20.9885 10.4181 22.0436 10.4597C23.0169 10.502 23.5469 10.6525 23.8989 10.7799C24.3338 10.9288 24.7276 11.1655 25.0515 11.4728C25.3835 11.771 25.6382 12.135 25.7966 12.5374C25.9341 12.8634 26.0966 13.3543 26.1423 14.2556C26.1873 15.2328 26.2004 15.5287 26.2004 18.0006C26.2004 20.4725 26.1873 20.7683 26.1385 21.7455C26.086 22.6469 25.9235 23.1378 25.7866 23.4637C25.5972 23.8985 25.3859 24.2024 25.0371 24.5312C24.7122 24.8368 24.3187 25.0724 23.8845 25.2213C23.5369 25.3487 22.9994 25.4992 22.0224 25.5414C20.9616 25.5831 20.6491 25.5953 17.9725 25.5953C15.2959 25.5953 14.984 25.5831 13.922 25.538C12.9487 25.4893 12.4118 25.3388 12.0599 25.212C11.5848 25.0366 11.2592 24.841 10.9104 24.5179C10.5584 24.192 10.3347 23.8817 10.1621 23.4504C10.0221 23.1286 9.86211 22.6307 9.81023 21.7259C9.7746 20.755 9.75772 20.454 9.75772 17.9867C9.75772 15.5206 9.7746 15.2189 9.81023 14.236C9.86211 13.3311 10.0221 12.8344 10.1621 12.5114C10.3347 12.0708 10.5591 11.7698 10.9104 11.4439C11.2585 11.1214 11.5848 10.913 12.0599 10.7498C12.4118 10.623 12.9356 10.4725 13.9126 10.4273C14.9734 10.392 15.2859 10.3793 17.9587 10.3793L18 10.4059ZM18 13.2466C17.3258 13.2464 16.6581 13.3692 16.0351 13.6081C15.4121 13.8469 14.8461 14.1971 14.3693 14.6387C13.8926 15.0802 13.5144 15.6045 13.2565 16.1814C12.9986 16.7584 12.866 17.3767 12.8662 18.0012C12.866 18.6256 12.9986 19.244 13.2565 19.8209C13.5144 20.3979 13.8926 20.9221 14.3693 21.3637C14.8461 21.8052 15.4121 22.1554 16.0351 22.3943C16.6581 22.6331 17.3258 22.756 18 22.7557C18.6742 22.756 19.3419 22.6331 19.9649 22.3943C20.5879 22.1554 21.1539 21.8052 21.6307 21.3637C22.1074 20.9221 22.4856 20.3979 22.7435 19.8209C23.0014 19.244 23.134 18.6256 23.1338 18.0012C23.134 17.3767 23.0014 16.7584 22.7435 16.1814C22.4856 15.6045 22.1074 15.0802 21.6307 14.6387C21.1539 14.1971 20.5879 13.8469 19.9649 13.6081C19.3419 13.3692 18.6742 13.2464 18 13.2466ZM18 21.0885C16.1573 21.0885 14.6665 19.7078 14.6665 18.0012C14.6665 16.2945 16.1573 14.9139 18 14.9139C19.8427 14.9139 21.3335 16.2945 21.3335 18.0012C21.3335 19.7078 19.8427 21.0885 18 21.0885ZM24.5408 13.0567C24.5405 13.3518 24.4137 13.6346 24.1883 13.8432C23.9629 14.0517 23.6574 14.1688 23.3388 14.1688C23.1813 14.1688 23.0253 14.1401 22.8798 14.0842C22.7342 14.0284 22.602 13.9466 22.4906 13.8434C22.3792 13.7403 22.2909 13.6178 22.2306 13.483C22.1703 13.3482 22.1393 13.2038 22.1393 13.0579C22.1393 12.912 22.1703 12.7675 22.2306 12.6327C22.2909 12.498 22.3792 12.3755 22.4906 12.2723C22.602 12.1692 22.7342 12.0873 22.8798 12.0315C23.0253 11.9757 23.1813 11.947 23.3388 11.947C23.9995 11.947 24.5408 12.4448 24.5408 13.0567Z" fill="white"/>
</g>
<defs>
<filter id="filter0_d_804_2314" x="0" y="0.738647" width="36" height="34.5227" filterUnits="userSpaceOnUse" color-interpolation-filters="sRGB">
<feFlood flood-opacity="0" result="BackgroundImageFix"/>
<feColorMatrix in="SourceAlpha" type="matrix" values="0 0 0 0 0 0 0 0 0 0 0 0 0 0 0 0 0 0 127 0" result="hardAlpha"/>
<feOffset/>
<feGaussianBlur stdDeviation="4"/>
<feComposite in2="hardAlpha" operator="out"/>
<feColorMatrix type="matrix" values="0 0 0 0 1 0 0 0 0 1 0 0 0 0 1 0 0 0 0.25 0"/>
<feBlend mode="normal" in2="BackgroundImageFix" result="effect1_dropShadow_804_2314"/>
<feBlend mode="normal" in="SourceGraphic" in2="effect1_dropShadow_804_2314" result="shape"/>
</filter>
</defs>
</svg>
